<svg width="21" height="22" viewBox="0 0 21 22" fill="none" xmlns="http://www.w3.org/2000/svg">
<path d="M1.12134 5.00018H3.12134H19.1213" stroke="#7A1315" stroke-width="2" stroke-linecap="round" stroke-linejoin="round"/>
<path d="M7.12134 5.00018V3.00018C7.12134 2.46975 7.33205 1.96104 7.70712 1.58597C8.0822 1.2109 8.5909 1.00018 9.12134 1.00018H13.1213C13.6518 1.00018 14.1605 1.2109 14.5356 1.58597C14.9106 1.96104 15.1213 2.46975 15.1213 3.00018V5.00018M18.1213 5.00018V19.0002C18.1213 19.5306 17.9106 20.0393 17.5356 20.4144C17.1605 20.7895 16.6518 21.0002 16.1213 21.0002H6.12134C5.5909 21.0002 5.0822 20.7895 4.70712 20.4144C4.33205 20.0393 4.12134 19.5306 4.12134 19.0002V5.00018H18.1213Z" stroke="#7A1315" stroke-width="2" stroke-linecap="round" stroke-linejoin="round"/>
<path d="M8.12134 10.0002V16.0002" stroke="#7A1315" stroke-width="2" stroke-linecap="round" stroke-linejoin="round"/>
<path d="M12.1213 10.0002V16.0002" stroke="#7A1315" stroke-width="2" stroke-linecap="round" stroke-linejoin="round"/>
</svg>
