<svg width="23" height="24" viewBox="0 0 23 24" fill="none" xmlns="http://www.w3.org/2000/svg">
<path d="M10 4.06085H3C2.46957 4.06085 1.96086 4.27157 1.58579 4.64664C1.21071 5.02171 1 5.53042 1 6.06085V20.0609C1 20.5913 1.21071 21.1 1.58579 21.4751C1.96086 21.8501 2.46957 22.0609 3 22.0609H17C17.5304 22.0609 18.0391 21.8501 18.4142 21.4751C18.7893 21.1 19 20.5913 19 20.0609V13.0609" stroke="#7A1315" stroke-width="2" stroke-linecap="round" stroke-linejoin="round"/>
<path d="M17.5 2.56083C17.8978 2.16301 18.4374 1.93951 19 1.93951C19.5626 1.93951 20.1022 2.16301 20.5 2.56083C20.8978 2.95866 21.1213 3.49823 21.1213 4.06083C21.1213 4.62344 20.8978 5.16301 20.5 5.56083L11 15.0608L7 16.0608L8 12.0608L17.5 2.56083Z" stroke="#7A1315" stroke-width="2" stroke-linecap="round" stroke-linejoin="round"/>
</svg>
