<svg width="25" height="25" viewBox="0 0 25 25" fill="none" xmlns="http://www.w3.org/2000/svg">
<path d="M5.46875 3.125V20.3125H19.5312V3.125H5.46875ZM4.6875 1.5625H20.3125C20.5197 1.5625 20.7184 1.64481 20.8649 1.79132C21.0114 1.93784 21.0938 2.13655 21.0938 2.34375V21.0938C21.0938 21.301 21.0114 21.4997 20.8649 21.6462C20.7184 21.7927 20.5197 21.875 20.3125 21.875H4.6875C4.4803 21.875 4.28159 21.7927 4.13507 21.6462C3.98856 21.4997 3.90625 21.301 3.90625 21.0938V2.34375C3.90625 2.13655 3.98856 1.93784 4.13507 1.79132C4.28159 1.64481 4.4803 1.5625 4.6875 1.5625Z" fill="#7A1315"/>
<path d="M1.5625 20.3125H23.4375V21.875H1.5625V20.3125ZM7.8125 4.6875H10.9375V7.03125H7.8125V4.6875Z" fill="#7A1315"/>
<path d="M9.375 20.3125H15.625V18.75C15.625 17.9212 15.2958 17.1263 14.7097 16.5403C14.1237 15.9542 13.3288 15.625 12.5 15.625C11.6712 15.625 10.8763 15.9542 10.2903 16.5403C9.70424 17.1263 9.375 17.9212 9.375 18.75V20.3125ZM12.5 14.0625C13.7432 14.0625 14.9355 14.5564 15.8146 15.4354C16.6936 16.3145 17.1875 17.5068 17.1875 18.75V21.875H7.8125V18.75C7.8125 17.5068 8.30636 16.3145 9.18544 15.4354C10.0645 14.5564 11.2568 14.0625 12.5 14.0625ZM7.8125 9.375H10.9375V11.7188H7.8125V9.375ZM14.0625 4.6875H17.1875V7.03125H14.0625V4.6875ZM14.0625 9.375H17.1875V11.7188H14.0625V9.375Z" fill="#7A1315"/>
</svg>
