<svg width="21" height="20" viewBox="0 0 21 20" fill="none" xmlns="http://www.w3.org/2000/svg">
<path d="M13.4389 11.5093L10.3999 14.5482L7.36097 11.5093C6.26045 11.5546 5.21998 12.0233 4.45682 12.8175C3.69365 13.6118 3.26677 14.6701 3.26532 15.7715L3.26532 16.08C3.26552 16.4854 3.42665 16.8742 3.7133 17.1608C3.99995 17.4475 4.38867 17.6086 4.79405 17.6088H16.0058C16.2068 17.6087 16.4058 17.569 16.5914 17.4919C16.777 17.4149 16.9457 17.302 17.0876 17.1597C17.2296 17.0174 17.3422 16.8486 17.4188 16.6628C17.4955 16.477 17.5348 16.278 17.5345 16.077V15.7684C17.5329 14.6671 17.1059 13.609 16.3428 12.815C15.5796 12.0209 14.5393 11.5523 13.4389 11.507V11.5093ZM3.6988 3.84016L3.90242 3.88798V5.7476C3.78914 5.80966 3.69418 5.90045 3.62711 6.01084C3.56003 6.12123 3.5232 6.24733 3.5203 6.37647C3.51741 6.5056 3.54856 6.63323 3.61063 6.74651C3.6727 6.85979 3.76349 6.95474 3.87388 7.0218L3.37716 9.00638C3.32317 9.2262 3.44426 9.4522 3.61935 9.4522H4.94986C5.12494 9.4522 5.24604 9.2262 5.19205 9.00638L4.69533 7.0218C4.80572 6.95474 4.89651 6.85979 4.95858 6.74651C5.02064 6.63323 5.0518 6.5056 5.0489 6.37647C5.04601 6.24733 5.00918 6.12123 4.9421 6.01084C4.87502 5.90045 4.78007 5.80966 4.66679 5.7476V4.07541L6.7686 4.58216C6.49339 5.13142 6.34612 5.73587 6.33782 6.35017C6.32952 6.96447 6.46042 7.57267 6.7207 8.12917C6.98097 8.68566 7.36387 9.17601 7.84067 9.56342C8.31748 9.95084 8.87581 10.2253 9.4738 10.3661C10.0718 10.507 10.6939 10.5106 11.2935 10.3768C11.8931 10.2429 12.4546 9.97506 12.9359 9.59325C13.4172 9.21145 13.8058 8.72562 14.0726 8.17221C14.3394 7.6188 14.4774 7.01217 14.4763 6.39782C14.473 5.7659 14.3203 5.14371 14.0305 4.58216L17.098 3.84324C17.2183 3.82554 17.3282 3.76515 17.4077 3.67311C17.4872 3.58107 17.5309 3.46351 17.5309 3.34189C17.5309 3.22028 17.4872 3.10272 17.4077 3.01068C17.3282 2.91863 17.2183 2.85825 17.098 2.84054L11.0339 1.3712C10.6183 1.27251 10.1854 1.27251 9.76976 1.3712L3.6988 2.8336C3.58091 2.85436 3.4741 2.916 3.39715 3.00769C3.32019 3.09937 3.27801 3.21525 3.27801 3.33495C3.27801 3.45465 3.32019 3.57053 3.39715 3.66222C3.4741 3.75391 3.58091 3.81554 3.6988 3.8363V3.84016Z" fill="#7A1315"/>
</svg>
