<svg width="24" height="24" viewBox="0 0 24 24" fill="none" xmlns="http://www.w3.org/2000/svg">
<path d="M14.154 12.462H18.231V11.462H14.154V12.462ZM14.154 9.692H18.231V8.692H14.154V9.692ZM5.769 15.308H12.385V15.142C12.385 14.5587 12.0917 14.1073 11.505 13.788C10.9183 13.4687 10.109 13.3087 9.077 13.308C8.04367 13.308 7.234 13.468 6.648 13.788C6.062 14.108 5.769 14.5593 5.769 15.142V15.308ZM9.077 11.692C9.499 11.692 9.85433 11.5477 10.143 11.259C10.4323 10.9697 10.577 10.614 10.577 10.192C10.577 9.77067 10.4323 9.41533 10.143 9.126C9.85433 8.83667 9.499 8.692 9.077 8.692C8.655 8.692 8.29967 8.83667 8.011 9.126C7.72167 9.41533 7.577 9.77067 7.577 10.192C7.577 10.614 7.72167 10.9697 8.011 11.259C8.29967 11.5477 8.655 11.692 9.077 11.692ZM4.615 19C4.155 19 3.771 18.846 3.463 18.538C3.15433 18.2293 3 17.845 3 17.385V6.615C3 6.155 3.15433 5.771 3.463 5.463C3.771 5.15433 4.155 5 4.615 5H19.385C19.845 5 20.229 5.15433 20.537 5.463C20.8457 5.771 21 6.155 21 6.615V17.385C21 17.845 20.846 18.229 20.538 18.537C20.2293 18.8457 19.845 19 19.385 19H4.615ZM4.615 18H19.385C19.5383 18 19.6793 17.936 19.808 17.808C19.936 17.6793 20 17.5383 20 17.385V6.615C20 6.46167 19.936 6.32067 19.808 6.192C19.6793 6.064 19.5383 6 19.385 6H4.615C4.46167 6 4.32067 6.064 4.192 6.192C4.064 6.32067 4 6.46167 4 6.615V17.385C4 17.5383 4.064 17.6793 4.192 17.808C4.32067 17.936 4.46167 18 4.615 18Z" fill="#7A1315"/>
</svg>
