<svg width="24" height="22" viewBox="0 0 24 22" fill="none" xmlns="http://www.w3.org/2000/svg">
<path d="M1 21H22.0526" stroke="#7A1315" stroke-width="2" stroke-linecap="round" stroke-linejoin="round"/>
<path d="M6.26315 12.5789H4.15789C3.57653 12.5789 3.10526 13.0502 3.10526 13.6316V19.9474C3.10526 20.5287 3.57653 21 4.15789 21H6.26315C6.8445 21 7.31578 20.5287 7.31578 19.9474V13.6316C7.31578 13.0502 6.8445 12.5789 6.26315 12.5789Z" stroke="#7A1315" stroke-width="2" stroke-linejoin="round"/>
<path d="M5.21054 16.7895H5.73686" stroke="#7A1315" stroke-width="2" stroke-linecap="square" stroke-linejoin="round"/>
<path d="M18.8947 1H8.36843C7.78708 1 7.3158 1.47128 7.3158 2.05263V19.9474C7.3158 20.5287 7.78708 21 8.36843 21H18.8947C19.4761 21 19.9474 20.5287 19.9474 19.9474V2.05263C19.9474 1.47128 19.4761 1 18.8947 1Z" stroke="#7A1315" stroke-width="2" stroke-linejoin="round"/>
<path d="M10.4737 4.1579H12.579V6.26316H10.4737V4.1579ZM14.6842 4.1579H16.7895V6.26316H14.6842V4.1579ZM10.4737 7.84211H12.579V9.94737H10.4737V7.84211ZM14.6842 7.84211H16.7895V9.94737H14.6842V7.84211ZM14.6842 11.5263H16.7895V13.6316H14.6842V11.5263ZM14.6842 15.2105H16.7895V17.3158H14.6842V15.2105Z" fill="#AFAFAF"/>
</svg>
