<svg width="43" height="44" viewBox="0 0 43 44" fill="none" xmlns="http://www.w3.org/2000/svg">
<path d="M35.8333 31.1667C36.7837 31.1667 37.6951 30.7804 38.3671 30.0928C39.0391 29.4052 39.4167 28.4725 39.4167 27.5001V7.33341C39.4167 6.36095 39.0391 5.42832 38.3671 4.74069C37.6951 4.05306 36.7837 3.66675 35.8333 3.66675H16.9492C17.5763 4.78508 17.9167 6.05008 17.9167 7.33341H35.8333V27.5001H19.7083V31.1667M26.875 12.8334V16.5001H16.125V40.3334H12.5417V29.3334H8.95833V40.3334H5.375V25.6667H2.6875V16.5001C2.6875 15.5276 3.06503 14.595 3.73703 13.9074C4.40904 13.2197 5.32047 12.8334 6.27083 12.8334H26.875ZM14.3333 7.33341C14.3333 8.30588 13.9558 9.23851 13.2838 9.92614C12.6118 10.6138 11.7004 11.0001 10.75 11.0001C9.79964 11.0001 8.88821 10.6138 8.2162 9.92614C7.5442 9.23851 7.16667 8.30588 7.16667 7.33341C7.16667 6.36095 7.5442 5.42832 8.2162 4.74069C8.88821 4.05306 9.79964 3.66675 10.75 3.66675C11.7004 3.66675 12.6118 4.05306 13.2838 4.74069C13.9558 5.42832 14.3333 6.36095 14.3333 7.33341Z" fill="#CB4446"/>
</svg>
