<svg width="37" height="37" viewBox="0 0 37 37" fill="none" xmlns="http://www.w3.org/2000/svg">
<path d="M32.7407 8.15309L18.8657 3.52809C18.6283 3.44897 18.3717 3.44897 18.1343 3.52809L4.25934 8.15309C4.0291 8.22984 3.82886 8.37709 3.68697 8.57397C3.54508 8.77086 3.46873 9.0074 3.46875 9.25009V20.8126C3.46875 21.1192 3.59057 21.4133 3.80741 21.6302C4.02425 21.847 4.31834 21.9688 4.625 21.9688C4.93166 21.9688 5.22575 21.847 5.44259 21.6302C5.65943 21.4133 5.78125 21.1192 5.78125 20.8126V10.8544L10.6361 12.4717C9.3462 14.5555 8.93603 17.0661 9.49561 19.4521C10.0552 21.8381 11.5388 23.9046 13.6206 25.1977C11.0191 26.2181 8.77016 28.0637 7.12539 30.5872C7.03985 30.7144 6.98043 30.8572 6.9506 31.0075C6.92076 31.1578 6.92109 31.3126 6.95158 31.4627C6.98207 31.6129 7.0421 31.7555 7.12819 31.8823C7.21427 32.009 7.3247 32.1174 7.45305 32.2012C7.58139 32.2849 7.7251 32.3422 7.87581 32.3699C8.02652 32.3976 8.18123 32.3951 8.33095 32.3624C8.48067 32.3298 8.62241 32.2677 8.74792 32.1798C8.87345 32.0919 8.98024 31.98 9.06211 31.8504C11.2402 28.5089 14.68 26.5938 18.5 26.5938C22.32 26.5938 25.7598 28.5089 27.9379 31.8504C28.1075 32.1025 28.3694 32.2777 28.6672 32.3381C28.9649 32.3986 29.2744 32.3394 29.5289 32.1734C29.7833 32.0075 29.9622 31.748 30.0269 31.4512C30.0916 31.1544 30.0369 30.844 29.8746 30.5872C28.2298 28.0637 25.9723 26.2181 23.3794 25.1977C25.4592 23.9046 26.9414 21.8395 27.5009 19.4553C28.0604 17.071 27.6515 14.5622 26.3639 12.4789L32.7407 10.3543C32.9709 10.2776 33.1712 10.1304 33.3132 9.93348C33.4551 9.73659 33.5315 9.50003 33.5315 9.25731C33.5315 9.01459 33.4551 8.77803 33.3132 8.58114C33.1712 8.38425 32.9709 8.23703 32.7407 8.16032V8.15309ZM25.4375 17.3438C25.4378 18.4406 25.1781 19.5218 24.6796 20.4988C24.1811 21.4758 23.4581 22.3206 22.5699 22.9641C21.6817 23.6075 20.6536 24.0312 19.5699 24.2003C18.4862 24.3695 17.3779 24.2793 16.3359 23.9371C15.2938 23.595 14.3477 23.0106 13.5752 22.2321C12.8027 21.4535 12.2258 20.5028 11.8919 19.4581C11.558 18.4134 11.4765 17.3044 11.6541 16.2221C11.8318 15.1398 12.2635 14.1151 12.9139 13.2319L18.1343 14.9663C18.3717 15.0454 18.6283 15.0454 18.8657 14.9663L24.0861 13.2319C24.9646 14.4229 25.4382 15.864 25.4375 17.3438ZM18.5 12.6567L8.28164 9.25009L18.5 5.84348L28.7184 9.25009L18.5 12.6567Z" fill="#C53F3F"/>
</svg>
