<svg width="108" height="108" viewBox="0 0 108 108" fill="none" xmlns="http://www.w3.org/2000/svg">
<path d="M21.2865 64.486L18.4504 64.5465L17.0118 64.5702C16.5323 64.581 16.0485 64.5702 15.5668 64.5832H15.4717V64.486L15.4609 62.0689V61.9609H15.5689L18.4288 61.9761C19.3813 61.9761 20.3361 61.9998 21.2886 62.0106H21.3469V62.0689C21.3469 62.4793 21.3297 62.8876 21.3189 63.2915L21.2865 64.486ZM21.2865 64.486L21.2562 63.2656C21.2562 62.8638 21.2303 62.4642 21.2281 62.0689L21.2865 62.1273C20.3339 62.1402 19.3792 62.1618 18.4266 62.164L15.5668 62.1769L15.6748 62.0689L15.6618 64.486L15.5668 64.3909C16.0377 64.3909 16.5085 64.3909 16.9794 64.4017L18.4007 64.4255L21.2865 64.486Z" fill="#EBEBEB"/>
<path d="M18.0933 67.5342L15.2572 67.5947L13.8187 67.6184C13.3391 67.6292 12.8553 67.6184 12.3736 67.6314H12.2764V67.5342L12.2656 65.1171V65.0156H12.3736L15.2335 65.0307C16.186 65.0307 17.1386 65.0545 18.0933 65.0653H18.1516V65.1236C18.1516 65.534 18.1322 65.9423 18.1235 66.3462L18.0933 67.5342ZM18.0933 67.5342L18.0631 66.3116C18.0631 65.9077 18.0371 65.5103 18.0328 65.115L18.0933 65.1733C17.1386 65.1863 16.186 65.2079 15.2335 65.21L12.3736 65.2316L12.4816 65.1236L12.4687 67.5407L12.3736 67.4456C12.8445 67.4456 13.3132 67.4456 13.7863 67.4456L15.2075 67.4694L18.0933 67.5342Z" fill="#EBEBEB"/>
<path d="M64.7652 38.5723L61.9291 38.6328L60.4905 38.6566C60.011 38.6566 59.5272 38.6566 59.0455 38.6674H58.9483V38.5702L58.9375 36.1531V36.043H59.0477L61.9075 36.0559C62.8601 36.0559 63.8126 36.0797 64.7673 36.0905H64.8257V36.1488C64.8257 36.5592 64.8062 36.9653 64.7976 37.3692L64.7652 38.5723ZM64.7652 38.5723L64.7328 37.3498C64.7328 36.948 64.709 36.5506 64.7047 36.1553L64.7652 36.2136C63.8105 36.2244 62.8579 36.2482 61.9053 36.2482L59.0455 36.2633L59.1535 36.1553L59.1405 38.5723L59.0455 38.4751C59.5164 38.4751 59.9851 38.4751 60.4581 38.4881L61.8794 38.5119L64.7652 38.5723Z" fill="#EBEBEB"/>
<path d="M61.5747 41.6207L58.7516 41.6877L57.313 41.7136C56.8313 41.7136 56.3497 41.7136 55.8658 41.7136H55.7708V41.6164L55.7578 39.1994V39.0957H55.8658L58.7257 39.1087C59.6804 39.1087 60.6329 39.1324 61.5855 39.1432H61.646V39.2015C61.646 39.6119 61.6265 40.018 61.6179 40.4219L61.5747 41.6207ZM61.5747 41.6207L61.5444 40.3982C61.5444 39.9964 61.5207 39.599 61.5164 39.2037L61.5747 39.262C60.6221 39.262 59.6696 39.2966 58.7148 39.2966L55.855 39.3117L55.963 39.2037V41.6207L55.8658 41.5235C56.3389 41.5235 56.8076 41.5235 57.2806 41.5365L58.7019 41.5603L61.5747 41.6207Z" fill="#EBEBEB"/>
<path d="M58.3958 38.5723L55.5619 38.6328L54.1234 38.6566C53.6417 38.6566 53.1578 38.6566 52.6762 38.6674H52.5811V38.5702L52.5703 36.1531V36.043H52.6783L55.5382 36.0559C56.4907 36.0559 57.4454 36.0797 58.398 36.0905H58.4585V36.1488C58.4585 36.5592 58.4412 36.9653 58.4304 37.3692L58.3958 38.5723ZM58.3958 38.5723L58.3656 37.3498C58.3548 36.948 58.3418 36.5506 58.3375 36.1553L58.3958 36.2136C57.4433 36.2244 56.4886 36.2482 55.536 36.2482L52.6762 36.2633L52.7842 36.1553V38.5723L52.687 38.4751C53.1578 38.4751 53.6287 38.4751 54.1018 38.4881L55.523 38.5119L58.3958 38.5723Z" fill="#EBEBEB"/>
<path d="M94.888 56.0419L92.0541 56.1024L90.6155 56.1261C90.1339 56.1261 89.65 56.1261 89.1683 56.1261H89.0733V56.0289L89.0625 53.6119V53.5039H89.1705L92.0303 53.5169C92.9829 53.5169 93.9376 53.5406 94.8902 53.5514H94.9507V53.6097C94.9507 54.0201 94.9334 54.4262 94.9226 54.8301L94.888 56.0419ZM94.888 56.0419L94.8578 54.8193C94.847 54.4176 94.834 54.0201 94.8297 53.6249L94.888 53.6832C93.9355 53.694 92.9807 53.7177 92.0282 53.7177L89.1683 53.7329L89.2763 53.6249L89.2655 56.0419L89.1683 55.9447C89.6392 55.9447 90.1101 55.9447 90.5831 55.9577L92.0044 55.9814L94.888 56.0419Z" fill="#EBEBEB"/>
<path d="M97.5308 59.2792L94.6947 59.3396L93.2562 59.3634C92.7745 59.3742 92.2928 59.3634 91.8111 59.3742H91.7139V59.277L91.7031 56.86V56.752H91.8133L94.6731 56.7649C95.6257 56.7649 96.5782 56.7908 97.533 56.8016H97.5913V56.86C97.5913 57.2704 97.5718 57.6786 97.5632 58.0804L97.5308 59.2792ZM97.5308 59.2792L97.4984 58.0588C97.4984 57.6548 97.4746 57.2574 97.4703 56.8621L97.5308 56.9204C96.5761 56.9312 95.6235 56.955 94.671 56.9572L91.8111 56.9701L91.917 56.8621L91.9062 59.2792L91.8111 59.182C92.282 59.182 92.7507 59.182 93.2238 59.1949L94.645 59.2187L97.5308 59.2792Z" fill="#EBEBEB"/>
<path d="M95.8786 12.5858L93.0425 12.6463L91.6039 12.67C91.1244 12.6808 90.6406 12.67 90.1589 12.6808H90.0703V12.5836V10.1666V10.0586H90.1805L93.0403 10.0716C93.9929 10.0716 94.9454 10.0953 95.9002 10.1083H95.9585V10.1666C95.9585 10.577 95.939 10.9852 95.9304 11.387L95.8786 12.5858ZM95.8786 12.5858L95.8483 11.3654C95.8375 10.9615 95.8224 10.564 95.8181 10.1688L95.8786 10.2271C94.9238 10.2271 93.9713 10.2616 93.0187 10.2638L90.1589 10.2768L90.2669 10.1688L90.2539 12.5858L90.1589 12.4886C90.6298 12.4886 91.0985 12.4886 91.5715 12.5016L92.9928 12.5253L95.8786 12.5858Z" fill="#EBEBEB"/>
<path d="M99.0699 15.6337L96.2338 15.6942L94.7952 15.7179C94.3157 15.7179 93.8319 15.7179 93.3502 15.7179H93.253V15.6207L93.2422 13.2037V13.0957H93.3502L96.21 13.1087C97.1626 13.1087 98.1173 13.1324 99.0699 13.1454H99.1282V13.2037C99.1282 13.6141 99.1109 14.0223 99.1001 14.4241L99.0699 15.6337ZM99.0699 15.6337L99.0396 14.4133C99.0396 14.0094 99.0137 13.6119 99.0116 13.2167L99.0699 13.275C98.1173 13.275 97.1626 13.3095 96.21 13.3117L93.3502 13.3247L93.4582 13.2167L93.4452 15.6337L93.3502 15.5365C93.8211 15.5365 94.2919 15.5365 94.7628 15.5495L96.1841 15.5732L99.0699 15.6337Z" fill="#EBEBEB"/>
<path d="M18.0933 12.5856L15.2572 12.6461L13.8208 12.6698C13.3413 12.6806 12.8575 12.6698 12.3758 12.6806H12.2786V12.5834L12.2656 10.1685V10.0605H12.3736L15.2335 10.0735C16.186 10.0735 17.1386 10.0973 18.0933 10.1102H18.1516V10.1685C18.1516 10.5789 18.1322 10.9872 18.1235 11.3889L18.0933 12.5856ZM18.0933 12.5856L18.0631 11.3652C18.0631 10.9613 18.0371 10.5638 18.0328 10.1685L18.0933 10.2269C17.1386 10.2269 16.186 10.2614 15.2335 10.2636L12.3736 10.2765L12.4816 10.1685L12.4687 12.5856L12.3736 12.4884C12.8445 12.4884 13.3132 12.4884 13.7863 12.5013L15.2075 12.5251L18.0933 12.5856Z" fill="#EBEBEB"/>
<path d="M96.5933 82.529H75.6045L74.7578 65.8301H97.44L96.5933 82.529Z" fill="#EBEBEB"/>
<path d="M77.2422 67.6758H94.9542L94.6345 73.4732H77.6137L77.2422 67.6758ZM94.7382 67.881H77.4582L77.8038 73.268H94.4358L94.7382 67.881Z" fill="#C7C7C7"/>
<path d="M77.6016 74.9102H94.2228L93.9549 80.1352H77.9299L77.6016 74.9102ZM94.0176 75.1154H77.8197L78.1221 79.9365H93.767L94.0176 75.1154Z" fill="#C7C7C7"/>
<path d="M84.3047 69.8047H87.5231L87.3438 71.2044H84.484L84.3047 69.8047ZM87.2898 70.0099H84.538L84.6654 70.997H87.1624L87.2898 70.0099Z" fill="#C7C7C7"/>
<path d="M84.3047 76.8262H87.5231L87.3438 78.2259H84.484L84.3047 76.8262ZM87.2898 77.0314H84.538L84.6654 78.0207H87.1624L87.2898 77.0314Z" fill="#C7C7C7"/>
<path d="M92.9453 82.5293L93.2002 84.348L93.7143 88.0027H94.7187V82.5293H92.9453Z" fill="#EBEBEB"/>
<path d="M92.9453 82.5293L93.2002 84.348H94.7187V82.5293H92.9453Z" fill="#C7C7C7"/>
<path d="M79.2499 82.5293L78.995 84.348L78.481 88.0027H77.4766V82.5293H79.2499Z" fill="#EBEBEB"/>
<path d="M79.2499 82.5293L78.995 84.348H77.4766V82.5293H79.2499Z" fill="#C7C7C7"/>
<path d="M38.592 12.4902H10.2031V51.2342H38.592V12.4902Z" fill="#EBEBEB"/>
<path d="M23.697 14.041H11.8516V31.2735H23.697V14.041Z" fill="white"/>
<path d="M36.947 14.041H25.1016V31.2735H36.947V14.041Z" fill="white"/>
<path d="M23.697 32.4492H11.8516V49.6817H23.697V32.4492Z" fill="white"/>
<path d="M36.947 32.4492H25.1016V49.6817H36.947V32.4492Z" fill="white"/>
<path d="M26.8672 12.4902H38.5895V67.918H31.8028L36.5397 39.7127L26.8672 12.4902Z" fill="#DBDBDB"/>
<path d="M28.8984 13.9883L30.8576 20.4056L32.7972 26.8273L36.6442 39.6836L36.6507 39.7052L36.6464 39.729L34.8363 53.1728L33.9118 59.8926L32.9657 66.608L33.806 59.8775L34.67 53.1512L36.4347 39.7009L36.4368 39.7463L32.6396 26.8748L30.7582 20.4359L28.8984 13.9883Z" fill="#EBEBEB"/>
<path d="M37.8949 15.125L37.9489 20.6827L37.9791 26.2425L38.0029 37.36L37.9791 48.4776L37.9489 54.0374L37.8949 59.5951L37.8431 54.0374L37.8128 48.4776L37.7891 37.36L37.8128 26.2425L37.8431 20.6827L37.8949 15.125Z" fill="#EBEBEB"/>
<path d="M35.7031 16.168L36.1675 22.0712L36.6125 27.9745L37.4678 39.7854V39.7897V39.7962L37.038 52.9592L36.8026 59.5386L36.5412 66.1201L36.6924 59.5364L36.8652 52.9528L37.2562 39.7897V39.8005L36.4526 27.9853L36.0682 22.0777L35.7031 16.168Z" fill="#EBEBEB"/>
<path d="M34.1746 65.2657L34.8226 58.8764L35.5008 52.4871C35.9696 48.2319 36.421 43.9745 36.907 39.7215V39.7539L34.788 29.8179L33.7448 24.8499L32.7188 19.8711L33.8355 24.8391L34.9371 29.8071L37.11 39.7431C36.6521 43.9983 36.1575 48.2513 35.6823 52.5044L34.9392 58.8829L34.1746 65.2657Z" fill="#EBEBEB"/>
<path d="M38.5935 39.248H35.9453V40.5397H38.5935V39.248Z" fill="#DBDBDB"/>
<path d="M21.9545 12.4902H10.2344V67.918H17.0189L12.2821 39.7127L21.9545 12.4902Z" fill="#DBDBDB"/>
<path d="M19.9241 13.9883L18.0644 20.4359L16.183 26.8748L12.3857 39.7463L12.3879 39.7009L14.1526 53.1512L15.0144 59.8775L15.8568 66.608L14.9108 59.8926L13.9863 53.1728L12.1762 39.729L12.1719 39.7052L12.1784 39.6836L16.0253 26.8273L17.965 20.4056L19.9241 13.9883Z" fill="#EBEBEB"/>
<path d="M10.9283 15.125L10.9823 20.6827L11.0126 26.2425L11.0363 37.36L11.0126 48.4776L10.9823 54.0374L10.9283 59.5951L10.8765 54.0374L10.8462 48.4776L10.8203 37.36L10.8462 26.2425L10.8765 20.6827L10.9283 15.125Z" fill="#EBEBEB"/>
<path d="M13.1184 16.168L12.7534 22.0777L12.3689 27.9853L11.5632 39.8005L11.5654 39.7897L11.9564 52.9528L12.1292 59.5364L12.2804 66.1201L12.0212 59.5386L11.7836 52.9592L11.3537 39.7962L11.3516 39.7897L11.3537 39.7854L12.2091 27.9745L12.654 22.0712L13.1184 16.168Z" fill="#EBEBEB"/>
<path d="M14.6464 65.2664L13.8817 58.8901L13.1387 52.5116C12.6635 48.2586 12.1689 44.0055 11.7109 39.7503V39.7157L13.8839 29.7797L14.9855 24.8118L16.1022 19.8438L15.0741 24.8398L14.0394 29.8078L11.9205 39.7438V39.7114C12.4065 43.9645 12.8557 48.2218 13.3266 52.477L14.0005 58.862L14.6464 65.2664Z" fill="#EBEBEB"/>
<path d="M10.2347 40.541H12.8828V39.2493H10.2347V40.541Z" fill="#DBDBDB"/>
<path d="M76.8225 30.0546L65.7266 24.8231L72.442 10.5801L80.6824 14.4638L82.2592 18.5267L76.8225 30.0546Z" fill="#EBEBEB"/>
<path d="M80.6871 14.4629L82.2639 18.5259L79.4062 17.178L80.6871 14.4629Z" fill="#DBDBDB"/>
<path d="M72.2284 13.8511L78.3984 16.7598L78.5707 16.3944L72.4006 13.4857L72.2284 13.8511Z" fill="#DBDBDB"/>
<path d="M71.7909 14.771L77.9609 17.6797L78.1332 17.3143L71.9631 14.4057L71.7909 14.771Z" fill="#DBDBDB"/>
<path d="M71.3534 15.6948L77.5234 18.6035L77.6957 18.2382L71.5256 15.3295L71.3534 15.6948Z" fill="#DBDBDB"/>
<path d="M70.9208 16.6192L79.9609 20.8809L80.1332 20.5155L71.093 16.2538L70.9208 16.6192Z" fill="#DBDBDB"/>
<path d="M70.4833 17.543L79.5234 21.8047L79.6957 21.4393L70.6555 17.1776L70.4833 17.543Z" fill="#DBDBDB"/>
<path d="M70.0458 18.4668L79.0859 22.7285L79.2582 22.3632L70.218 18.1015L70.0458 18.4668Z" fill="#DBDBDB"/>
<path d="M69.6161 19.3887L78.6562 23.6504L78.8285 23.285L69.7883 19.0233L69.6161 19.3887Z" fill="#DBDBDB"/>
<path d="M69.1786 20.3125L78.2188 24.5742L78.391 24.2089L69.3508 19.9472L69.1786 20.3125Z" fill="#DBDBDB"/>
<path d="M68.7411 21.2364L77.7812 25.498L77.9535 25.1327L68.9133 20.871L68.7411 21.2364Z" fill="#DBDBDB"/>
<path d="M68.3036 22.1582L77.3438 26.4199L77.516 26.0546L68.4758 21.7929L68.3036 22.1582Z" fill="#DBDBDB"/>
<path d="M67.8739 23.0821L76.9141 27.3438L77.0863 26.9784L68.0461 22.7167L67.8739 23.0821Z" fill="#DBDBDB"/>
<path d="M67.4364 24.0039L76.4766 28.2656L76.6488 27.9003L67.6086 23.6386L67.4364 24.0039Z" fill="#DBDBDB"/>
<path d="M46.8531 37.5033L34.6016 36.8813L35.3986 21.1543L44.4944 21.6144L47.4989 24.7723L46.8531 37.5033Z" fill="#EBEBEB"/>
<path d="M44.4949 21.6152L47.4995 24.7732L44.3438 24.6133L44.4949 21.6152Z" fill="#DBDBDB"/>
<path d="M36.4375 24.2604L43.25 24.6055L43.2704 24.2021L36.4579 23.857L36.4375 24.2604Z" fill="#DBDBDB"/>
<path d="M36.3828 25.2799L43.1953 25.625L43.2157 25.2216L36.4032 24.8765L36.3828 25.2799Z" fill="#DBDBDB"/>
<path d="M36.3281 26.2975L43.1406 26.6426L43.1611 26.2392L36.3485 25.8941L36.3281 26.2975Z" fill="#DBDBDB"/>
<path d="M36.2763 27.3186L46.2578 27.8242L46.2782 27.4208L36.2967 26.9152L36.2763 27.3186Z" fill="#DBDBDB"/>
<path d="M36.2294 28.3381L46.2109 28.8438L46.2314 28.4403L36.2499 27.9347L36.2294 28.3381Z" fill="#DBDBDB"/>
<path d="M36.1747 29.3576L46.1562 29.8633L46.1767 29.4599L36.1952 28.9542L36.1747 29.3576Z" fill="#DBDBDB"/>
<path d="M36.12 30.3772L46.1016 30.8828L46.122 30.4794L36.1405 29.9738L36.12 30.3772Z" fill="#DBDBDB"/>
<path d="M36.0732 31.3947L46.0547 31.9004L46.0751 31.497L36.0936 30.9913L36.0732 31.3947Z" fill="#DBDBDB"/>
<path d="M36.0185 32.4143L46 32.9199L46.0204 32.5165L36.0389 32.0109L36.0185 32.4143Z" fill="#DBDBDB"/>
<path d="M35.9716 33.4338L45.9531 33.9395L45.9736 33.5361L35.992 33.0304L35.9716 33.4338Z" fill="#DBDBDB"/>
<path d="M35.9169 34.4533L45.8984 34.959L45.9189 34.5556L35.9374 34.0499L35.9169 34.4533Z" fill="#DBDBDB"/>
<path d="M35.87 35.4748L45.8516 35.9805L45.872 35.5771L35.8905 35.0714L35.87 35.4748Z" fill="#DBDBDB"/>
<path d="M53.9567 96.044C73.4051 96.044 89.1712 94.284 89.1712 92.1128C89.1712 89.9417 73.4051 88.1816 53.9567 88.1816C34.5082 88.1816 18.7422 89.9417 18.7422 92.1128C18.7422 94.284 34.5082 96.044 53.9567 96.044Z" fill="#EBEBEB"/>
<path d="M75.8679 100.275C87.2246 100.275 96.4311 98.9473 96.4311 97.3094C96.4311 95.6715 87.2246 94.3438 75.8679 94.3438C64.5111 94.3438 55.3047 95.6715 55.3047 97.3094C55.3047 98.9473 64.5111 100.275 75.8679 100.275Z" fill="#EBEBEB"/>
<path d="M8.8125 88.0631L20.1093 88.0112L31.4061 87.9918L53.9997 87.9551L76.5933 87.9918L87.8901 88.0091L99.1847 88.0631L87.8901 88.1149L76.5933 88.1344L53.9997 88.1711L31.4061 88.1344L20.1093 88.1149L8.8125 88.0631Z" fill="#263238"/>
<path d="M16.8529 56.2595C16.8529 56.2595 12.3882 55.6353 13.4314 50.2461C13.4401 50.2461 18.4275 51.3671 16.8529 56.2595Z" fill="#C53F3F"/>
<path opacity="0.1" d="M16.8529 56.2595C16.8529 56.2595 12.3882 55.6353 13.4314 50.2461C13.4401 50.2461 18.4275 51.3671 16.8529 56.2595Z" fill="black"/>
<path d="M16.6322 55.1357C16.5449 54.8627 16.4432 54.5945 16.3277 54.3322C16.3277 54.2976 16.3277 54.2631 16.3277 54.2307L16.3082 54.0147C16.3082 53.8527 16.2866 53.6928 16.278 53.5308C16.2586 53.209 16.237 52.8828 16.2326 52.5653C16.2315 52.5625 16.2296 52.5601 16.2271 52.5584C16.2246 52.5567 16.2216 52.5558 16.2186 52.5558C16.2156 52.5558 16.2126 52.5567 16.2101 52.5584C16.2076 52.5601 16.2057 52.5625 16.2046 52.5653C16.2046 52.8871 16.2046 53.2133 16.2046 53.533C16.2046 53.6928 16.2197 53.8548 16.2305 54.0147V54.1227C15.9811 53.5832 15.6817 53.0683 15.3362 52.5847C15.1829 52.3687 15.0209 52.1657 14.8481 51.967C14.6753 51.7683 14.483 51.5695 14.3016 51.3665C14.3016 51.3535 14.2714 51.3665 14.2822 51.3881C14.6039 51.7422 14.8931 52.1247 15.1462 52.5307C15.2822 52.7467 15.4097 52.9476 15.5306 53.1615L15.4874 53.1355L15.3276 53.0729L14.9647 52.9347L14.2562 52.6755C14.2433 52.6755 14.2325 52.6949 14.2562 52.7014C14.4938 52.7964 14.7271 52.8958 14.9626 52.9973L15.3082 53.1463L15.4831 53.2176C15.5204 53.2354 15.5595 53.2492 15.5998 53.2587C15.6905 53.4207 15.779 53.5827 15.8611 53.749C16.069 54.166 16.2515 54.5952 16.4076 55.0342L16.44 55.1271C16.3227 55.0594 16.2007 55.0002 16.075 54.9499L15.6127 54.7339C15.2995 54.5892 14.9885 54.4445 14.6882 54.2739C14.6731 54.2739 14.6602 54.289 14.6753 54.2976C14.982 54.4661 15.2822 54.6432 15.589 54.8117C15.7423 54.8938 15.8978 54.9759 16.0555 55.0515C16.1857 55.1289 16.327 55.1857 16.4746 55.2199C16.6232 55.6283 16.7212 56.0534 16.7662 56.4857C16.8158 57.0948 16.8115 57.7104 16.8245 58.3195C16.8245 58.3303 16.8396 58.3303 16.8418 58.3195C16.885 57.7666 16.9109 57.2071 16.913 56.6499C16.9003 56.1334 16.8055 55.6223 16.6322 55.1357Z" fill="#263238"/>
<path d="M15.9404 51.9665C15.8974 52.2813 15.8822 52.5993 15.8951 52.9168C15.8951 52.9276 15.908 52.9168 15.9102 52.9168C15.9275 52.6015 15.9296 52.2883 15.9663 51.9751C15.9685 51.9578 15.9426 51.9492 15.9404 51.9665Z" fill="#263238"/>
<path d="M14.6646 52.2365C14.4648 52.1609 14.2724 52.0669 14.09 51.9557C14.0749 51.9449 14.0619 51.9708 14.0771 51.9795C14.256 52.0999 14.4518 52.1931 14.6581 52.256C14.6581 52.256 14.6862 52.2408 14.6646 52.2365Z" fill="#263238"/>
<path d="M17.0001 64.8155C17.0001 64.323 16.9871 63.8305 16.9806 63.3359C16.972 61.6986 16.9547 60.0606 16.9288 58.4219C16.9057 57.1259 16.8755 55.8255 16.8381 54.5209C16.8381 54.5209 16.8381 54.5079 16.8251 54.5036C16.8251 54.1494 16.8251 53.793 16.8251 53.4387C16.8251 53.4387 16.8143 53.4258 16.8035 53.4258C16.7927 53.4258 16.7819 53.4258 16.7819 53.4387V54.5058C16.7819 54.5058 16.7819 54.5058 16.7819 54.5209C16.7171 56.8364 16.6588 59.1519 16.6437 61.4653C16.6437 61.9362 16.6437 62.4071 16.6437 62.8779C16.6278 64.3871 16.6221 65.8991 16.6264 67.4139C16.6264 67.6537 16.6264 67.8935 16.6264 68.1332C16.6264 69.5156 16.6393 70.8959 16.6415 72.2761C16.6415 72.3517 16.7236 72.3884 16.8121 72.3906C16.9007 72.3927 17.0281 72.356 17.0281 72.2696C17.0281 70.7468 17.0281 69.224 17.0281 67.7012C17.0022 66.7443 17.0065 65.7767 17.0001 64.8155Z" fill="#263238"/>
<path d="M15.1342 63.3173C15.1342 63.3173 12.9872 61.7275 10.9503 62.8032C8.91343 63.8789 8.59375 68.0218 8.59375 68.0218C8.59375 68.0218 11.5853 68.4538 13.4689 66.6545C15.2854 64.9265 15.1342 63.3173 15.1342 63.3173Z" fill="#C53F3F"/>
<path d="M15.7213 63.415C15.3272 63.2587 14.9004 63.203 14.4793 63.253C14.3922 63.2379 14.3042 63.2293 14.2158 63.2271L13.9134 63.2033L13.287 63.1601C12.855 63.1277 12.4381 63.1018 12.0148 63.0586C11.9997 63.0586 11.9975 63.0845 12.0148 63.0867C12.4338 63.1407 12.8485 63.199 13.2697 63.2422C13.4857 63.2638 13.7017 63.2854 13.9177 63.3005L14.0733 63.3156L13.8832 63.3632C13.5468 63.4623 13.2212 63.5947 12.9112 63.7584C12.7405 63.7887 12.5742 63.8362 12.4079 63.8751C12.1422 63.9377 11.8765 64.0068 11.613 64.076C11.0925 64.212 10.5762 64.3676 10.0578 64.508C10.0544 64.508 10.0511 64.5093 10.0487 64.5117C10.0462 64.5142 10.0449 64.5175 10.0449 64.5209C10.0449 64.5243 10.0462 64.5276 10.0487 64.5301C10.0511 64.5325 10.0544 64.5339 10.0578 64.5339C10.5741 64.4086 11.0946 64.292 11.613 64.1688C11.8636 64.1084 12.1163 64.05 12.3669 63.9874L12.5656 63.942C11.9883 64.2988 11.4726 64.7467 11.0385 65.2683C10.6205 65.7877 10.2666 66.3555 9.98438 66.9596C9.98438 66.9747 9.9995 66.9898 10.0081 66.9725C10.3612 66.3585 10.7925 65.7929 11.2912 65.2899L11.2631 65.3741C11.2242 65.5016 11.1832 65.6268 11.1443 65.7543C11.0644 66.007 10.9845 66.2597 10.9089 66.5124C10.9089 66.5297 10.9283 66.5362 10.9348 66.5124C11.0255 66.2684 11.1119 66.0221 11.1983 65.7759L11.3257 65.413L11.3905 65.2251L11.41 65.1668C11.65 64.9346 11.9046 64.7182 12.1725 64.5188C12.5266 64.2611 12.9084 64.0437 13.3108 63.8708C13.3108 63.9075 13.2978 63.9442 13.2892 63.9809C13.2697 64.0781 13.246 64.1753 13.2265 64.2747C13.1855 64.4777 13.1445 64.6808 13.1056 64.886C13.0257 65.3007 12.9738 65.7219 12.8896 66.1366C12.8896 66.1539 12.9133 66.1604 12.9177 66.1366C13.0127 65.7197 13.1337 65.3072 13.2309 64.8903C13.2762 64.6743 13.3237 64.4712 13.3669 64.2596C13.3885 64.1624 13.408 64.063 13.4274 63.9658C13.4274 63.9118 13.4512 63.8556 13.4577 63.8016C13.4965 63.7865 13.5354 63.7671 13.5743 63.7541C14.1381 63.5095 14.7578 63.4229 15.3671 63.5036C15.6519 63.5559 15.9193 63.678 16.1455 63.859C16.3716 64.0399 16.5495 64.274 16.6631 64.5404C16.6825 64.5857 16.756 64.5576 16.7452 64.5101C16.6726 64.2599 16.5421 64.0304 16.3642 63.8401C16.1863 63.6498 15.9661 63.5042 15.7213 63.415Z" fill="#263238"/>
<path d="M10.355 65.8809C10.0829 66.0191 9.8172 66.1768 9.53208 66.2913C9.51264 66.2913 9.53208 66.3237 9.53208 66.315C9.81864 66.1861 10.0977 66.0411 10.368 65.8809C10.368 65.8809 10.368 65.8809 10.355 65.8809Z" fill="#263238"/>
<path d="M15.622 60.3959C15.622 60.3959 12.9976 60.5622 11.7772 58.8321C10.5568 57.1019 10.8311 54.6309 10.8311 54.6309C10.8311 54.6309 13.5872 54.9657 14.6824 56.2077C15.7775 57.4497 15.622 60.3959 15.622 60.3959Z" fill="#C53F3F"/>
<path d="M16.85 62.9867C16.7593 62.7037 16.6469 62.4272 16.5411 62.1529C16.4353 61.8786 16.3251 61.6259 16.2149 61.3667C15.9802 60.8377 15.7177 60.3215 15.4287 59.8201C15.2429 59.5004 15.0442 59.1916 14.839 58.887C14.839 58.8395 14.8261 58.7941 14.8196 58.7466C14.8066 58.6645 14.7958 58.5846 14.7829 58.5025C14.7569 58.3362 14.7267 58.1699 14.7008 58.0057C14.6403 57.6428 14.5647 57.2821 14.5064 56.9257C14.5064 56.9223 14.505 56.919 14.5026 56.9165C14.5002 56.9141 14.4969 56.9128 14.4934 56.9128C14.49 56.9128 14.4867 56.9141 14.4843 56.9165C14.4818 56.919 14.4805 56.9223 14.4805 56.9257C14.5323 57.2821 14.569 57.6428 14.6187 58.0057C14.6425 58.1828 14.6662 58.3578 14.6943 58.5349C14.6943 58.5975 14.7137 58.6602 14.7224 58.725C14.3232 58.1389 13.8905 57.5763 13.4264 57.0402L13.2363 56.8242C13.2363 56.8048 13.219 56.7853 13.2104 56.7637L13.1542 56.6147C13.1153 56.5088 13.0786 56.3987 13.0397 56.3015C12.9663 56.0963 12.9015 55.8889 12.8453 55.6772C12.8453 55.66 12.8151 55.6772 12.8194 55.6772C12.8713 55.8932 12.9274 56.1092 12.9901 56.3252C13.0225 56.4289 13.0549 56.5304 13.0916 56.6298L13.111 56.6816C12.7741 56.3166 12.4241 55.9624 12.0721 55.6146C12.0591 55.6016 12.0397 55.6146 12.0526 55.634C12.7309 56.344 13.3528 57.106 13.9124 57.9128C13.8487 57.8922 13.7838 57.8756 13.718 57.8632C13.5149 57.8243 13.3119 57.7962 13.1089 57.7703C12.6769 57.7141 12.2449 57.6601 11.828 57.5932C11.8107 57.5932 11.8042 57.6169 11.828 57.6212C12.2341 57.7012 12.638 57.7919 13.0419 57.8848C13.232 57.928 13.4242 57.9668 13.6143 58.0036C13.771 58.0376 13.9254 58.0816 14.0765 58.1353L14.204 58.3168C14.3955 58.5976 14.5813 58.8856 14.7613 59.1808L14.4934 59.1268C14.2925 59.0879 14.0873 59.0512 13.8843 59.0188C13.4847 58.9518 13.0829 58.8827 12.6877 58.7919C12.6704 58.7919 12.6639 58.8157 12.6877 58.8179C13.0894 58.9129 13.4869 59.0231 13.8843 59.1289C14.0765 59.1807 14.2709 59.2283 14.4653 59.2693L14.7569 59.3319C14.7958 59.3428 14.8356 59.35 14.8757 59.3536C15.2581 59.9756 15.6188 60.6107 15.9557 61.2608C16.1026 61.5459 16.243 61.8354 16.3877 62.1248C16.5325 62.4143 16.6491 62.7275 16.7787 63.0299C16.7765 63.0731 16.8716 63.0515 16.85 62.9867Z" fill="#263238"/>
<path d="M14.1624 56.9523C14.1106 56.7018 14.0588 56.4533 14.0026 56.2049C14.0026 56.1877 13.9745 56.2049 13.9767 56.2049C14.0271 56.4512 14.0746 56.6974 14.1192 56.9437C14.1558 57.1917 14.2056 57.4375 14.2683 57.6802C14.2488 57.4356 14.2135 57.1924 14.1624 56.9523Z" fill="#263238"/>
<path d="M12.6313 56.8827C12.5103 56.8222 12.3807 56.7726 12.2533 56.7229L12.0546 56.6451L11.953 56.6041C11.9146 56.5927 11.8776 56.5768 11.8429 56.5565C11.8234 56.5414 11.8105 56.576 11.8299 56.5782C11.8694 56.5886 11.9072 56.6046 11.9422 56.6257L12.0416 56.6689L12.2338 56.7553C12.3596 56.814 12.4887 56.8652 12.6205 56.9086C12.6356 56.913 12.6464 56.8892 12.6313 56.8827Z" fill="#263238"/>
<path d="M18.3047 58.3343C18.3047 58.3343 19.8923 55.3664 22.3093 54.9064C24.7264 54.4463 26.1973 56.9346 26.1973 56.9346C26.1973 56.9346 24.4348 59.1853 22.2164 59.5763C19.9981 59.9672 18.3047 58.3343 18.3047 58.3343Z" fill="#C53F3F"/>
<path d="M23.9303 56.2351C23.3012 56.1505 22.663 56.1578 22.036 56.2567L22.144 56.2006L22.6797 55.9241C23.0481 55.7201 23.4266 55.5348 23.8137 55.369C23.8331 55.369 23.8137 55.3366 23.8137 55.3452C23.4357 55.5202 23.0447 55.6692 22.6645 55.842C22.4745 55.9306 22.2887 56.0213 22.1051 56.1185C21.9841 56.1811 21.8524 56.2416 21.7357 56.3172C21.2051 56.4243 20.6894 56.5955 20.2 56.827L20.5024 56.4987C20.7184 56.2524 20.9495 55.9932 21.1957 55.7686C21.2087 55.7556 21.1957 55.7383 21.1763 55.7491C20.9236 55.9803 20.6557 56.1811 20.4117 56.4295C20.2929 56.5462 20.1784 56.6671 20.0682 56.7903C20.0121 56.8507 19.9581 56.9155 19.9041 56.9803C19.0748 57.4252 18.3542 58.0481 17.7941 58.8044C17.2339 59.5606 16.848 60.4314 16.6641 61.3543C16.6641 61.3716 16.6857 61.3802 16.69 61.3543C17.0314 60.224 17.6413 59.1932 18.4677 58.3498C19.357 57.4421 20.4773 56.7946 21.7077 56.4771C22.4373 56.291 23.192 56.2225 23.9433 56.274C23.9584 56.2848 23.9605 56.2395 23.9303 56.2351Z" fill="#263238"/>
<path opacity="0.1" d="M26.2032 56.9327C26.2032 56.9327 24.4406 59.1835 22.2223 59.5766C20.531 59.8747 19.14 58.9934 18.5741 58.5592L18.4531 58.3583C18.4531 58.3583 19.5958 57.395 21.7601 56.8463C23.9244 56.2977 26.2032 56.9327 26.2032 56.9327Z" fill="black"/>
<path d="M22.523 55.1776C22.3416 55.2899 22.158 55.3936 21.9874 55.5319C21.8191 55.6614 21.6629 55.806 21.5208 55.9639C21.5078 55.9768 21.5208 55.9941 21.5424 55.9833C21.7022 55.8429 21.8642 55.7047 22.0306 55.5729C22.1922 55.4405 22.3618 55.3178 22.5382 55.2057C22.5533 55.1927 22.5382 55.169 22.523 55.1776Z" fill="#263238"/>
<path d="M23.8512 55.6807L23.5812 55.7866L23.3133 55.8989C23.2939 55.8989 23.3133 55.9378 23.3133 55.9291L23.5833 55.8211L23.8512 55.7066C23.8749 55.7002 23.8684 55.6742 23.8512 55.6807Z" fill="#263238"/>
<path d="M17.9844 62.0662C17.9844 62.0662 18.4164 65.0081 20.6217 66.0384C22.8271 67.0687 25.5314 66.0384 25.5314 66.0384C25.5314 66.0384 24.4709 59.6707 17.9844 62.0662Z" fill="#C53F3F"/>
<path d="M24.0112 64.1252C23.8082 64.1015 23.6052 64.0669 23.4021 64.0302L23.1062 63.974L22.9507 63.9416L22.7714 63.7775C22.3518 63.4081 21.8983 63.0791 21.4171 62.7947C21.1553 62.6403 20.8848 62.5012 20.6071 62.3778H20.6481L21.376 62.4102C21.862 62.4318 22.348 62.4426 22.834 62.475C22.8513 62.475 22.8492 62.4491 22.834 62.4469C22.348 62.4145 21.862 62.3605 21.376 62.3195L20.6697 62.2568L20.3068 62.2266L20.214 62.2158C20.0865 62.1704 19.9591 62.1251 19.8316 62.084C19.2257 61.8806 18.5752 61.8492 17.9524 61.9933C17.3952 62.1359 16.84 62.5009 16.6953 63.0863C16.6953 63.1079 16.7234 63.1208 16.732 63.1014C16.948 62.6111 17.4837 62.3627 17.974 62.2611C18.3045 62.1974 18.6435 62.1909 18.9763 62.2417C18.9989 62.3934 19.0365 62.5424 19.0886 62.6867C19.1491 62.9027 19.2096 63.1014 19.2722 63.3066C19.3975 63.7213 19.5357 64.1295 19.6588 64.5443C19.6588 64.5615 19.6891 64.5443 19.6848 64.5443C19.5811 64.1317 19.4947 63.7148 19.3953 63.3023C19.3478 63.0992 19.296 62.8962 19.2463 62.6931C19.2171 62.5514 19.1796 62.4114 19.134 62.2741C19.3279 62.3085 19.5197 62.3539 19.7085 62.4102C20.0499 62.5117 20.3846 62.6343 20.7108 62.7774C20.7432 62.9934 20.7907 63.1943 20.8382 63.4016C20.8987 63.6608 20.9656 63.92 21.0542 64.1727C21.0542 64.1762 21.0556 64.1795 21.058 64.1819C21.0604 64.1843 21.0637 64.1857 21.0672 64.1857C21.0706 64.1857 21.0739 64.1843 21.0763 64.1819C21.0787 64.1795 21.0801 64.1762 21.0801 64.1727C21.0801 64.1555 21.0801 64.1403 21.0801 64.123C21.0304 63.8833 20.9786 63.6435 20.9268 63.4016C20.8857 63.2094 20.849 63.0128 20.8058 62.8206C21.0801 62.9437 21.3523 63.0798 21.6136 63.2288C21.6136 63.2893 21.6331 63.3498 21.6417 63.4038C21.6568 63.5053 21.6763 63.6068 21.6936 63.7062C21.7368 63.933 21.7821 64.1598 21.8361 64.3844C21.9355 64.8183 22.0625 65.2454 22.2163 65.6631C22.2141 65.6655 22.213 65.6686 22.213 65.6718C22.213 65.675 22.2141 65.678 22.2163 65.6804L22.2292 65.6955C22.2292 65.7063 22.2552 65.6955 22.2508 65.6826C22.1493 65.2506 22.0348 64.8186 21.9355 64.3866C21.888 64.1706 21.8404 63.9546 21.7972 63.7386C21.7735 63.6284 21.754 63.5226 21.7324 63.4103C21.7324 63.3779 21.7324 63.3455 21.7173 63.3109C22.0164 63.4852 22.3049 63.6771 22.5813 63.8855C23.0589 64.244 23.5008 64.6476 23.9011 65.0907C23.9162 65.108 23.9486 65.0907 23.9335 65.0627C23.765 64.8467 23.5965 64.6307 23.4064 64.4147C23.2941 64.2959 23.1796 64.1814 23.0608 64.069H23.0976C23.2012 64.0863 23.3136 64.1015 23.4108 64.1144C23.6138 64.1425 23.819 64.1619 24.0242 64.1857C24.022 64.1533 24.0285 64.1274 24.0112 64.1252Z" fill="#263238"/>
<path d="M22.4619 65.1222C22.4619 65.0962 22.4619 65.0703 22.4619 65.0444C22.4619 65.0185 22.4381 64.9818 22.4338 64.9494C22.3884 64.7528 22.3495 64.5562 22.3128 64.3554C22.3128 64.3424 22.2891 64.3554 22.2891 64.3554C22.3037 64.6191 22.3605 64.8787 22.4575 65.1243H22.4748L22.4619 65.1222Z" fill="#263238"/>
<path d="M20.6055 65.0742C20.6055 65.0707 20.6041 65.0675 20.6017 65.065C20.5993 65.0626 20.596 65.0612 20.5925 65.0612C20.5299 64.802 20.4694 64.5407 20.4176 64.2771C20.3873 64.1389 20.3593 64.0028 20.3333 63.8646C20.3182 63.789 20.3053 63.7155 20.2923 63.6486C20.2868 63.5831 20.2707 63.5189 20.2448 63.4585C20.2434 63.4563 20.2415 63.4544 20.2393 63.4531C20.237 63.4519 20.2344 63.4512 20.2318 63.4512C20.2292 63.4512 20.2267 63.4519 20.2244 63.4531C20.2221 63.4544 20.2202 63.4563 20.2189 63.4585C20.2171 63.5924 20.236 63.7257 20.275 63.8538C20.3009 63.9985 20.329 64.1411 20.3614 64.2858C20.4262 64.5774 20.4975 64.8647 20.5774 65.1498C20.5774 65.1649 20.6098 65.1627 20.6077 65.1498L20.6055 65.0742Z" fill="#263238"/>
<path d="M23.8068 63.2753C23.4029 63.2213 22.999 63.163 22.5929 63.1133C22.5778 63.1133 22.5691 63.137 22.5929 63.1392C22.9968 63.1997 23.4029 63.2494 23.8068 63.3034C23.8176 63.3055 23.8241 63.2882 23.8068 63.2753Z" fill="#263238"/>
<path d="M16.8468 55.1646C16.8468 55.1646 15.4925 49.2224 21.8753 46.8184C21.8796 46.8184 23.6486 54.6484 16.8468 55.1646Z" fill="#C53F3F"/>
<path d="M18.2291 51.7946L18.2982 51.7536L18.6589 51.5505L19.3977 51.138C19.8858 50.8637 20.3675 50.5807 20.8578 50.315C20.8729 50.315 20.8578 50.2826 20.8427 50.2913C20.3524 50.5591 19.8513 50.8075 19.3566 51.0689L18.6244 51.4555L18.3263 51.6153C18.5423 51.2114 18.7583 50.814 19.0175 50.4338C19.3501 49.9241 19.7152 49.4402 20.0975 48.965C20.1015 48.9607 20.1036 48.955 20.1034 48.9491C20.1032 48.9433 20.1007 48.9377 20.0964 48.9337C20.0921 48.9297 20.0864 48.9275 20.0805 48.9277C20.0747 48.928 20.0691 48.9305 20.0651 48.9348C19.5053 49.4794 19.0103 50.0868 18.5898 50.7449C18.5887 50.724 18.5887 50.7031 18.5898 50.6822C18.5898 50.5353 18.5898 50.3885 18.6028 50.2502C18.6028 49.9608 18.6028 49.6692 18.6028 49.3862C18.6028 49.3689 18.5769 49.3711 18.5769 49.3862C18.5639 49.6713 18.5293 49.9543 18.5142 50.2502C18.5142 50.3906 18.4991 50.5332 18.4948 50.6822C18.4948 50.76 18.4948 50.8485 18.4948 50.9328C18.363 51.1488 18.2377 51.3648 18.1168 51.5678C17.9042 51.9556 17.7138 52.3551 17.5465 52.7645C17.5465 52.6176 17.5314 52.4685 17.5228 52.3325C17.5033 52.0063 17.4645 51.6845 17.4515 51.3583C17.4504 51.3555 17.4484 51.3531 17.4459 51.3514C17.4434 51.3497 17.4405 51.3488 17.4375 51.3488C17.4344 51.3488 17.4315 51.3497 17.429 51.3514C17.4265 51.3531 17.4245 51.3555 17.4234 51.3583C17.4234 51.6845 17.4234 52.0063 17.4234 52.3346C17.4234 52.4966 17.4234 52.6586 17.4429 52.8228C17.4429 52.8804 17.4472 52.9409 17.4558 53.0042C17.2514 53.5341 17.0897 54.0794 16.972 54.635C16.8627 55.229 16.7834 55.828 16.7344 56.43C16.8031 55.888 16.9165 55.3527 17.0735 54.8294C17.1534 54.5508 17.2355 54.27 17.3262 53.9935C17.5919 53.8682 17.8468 53.7127 18.1017 53.5615L18.903 53.1295C19.4365 52.8379 19.9679 52.542 20.5165 52.2828C20.5338 52.2828 20.5165 52.2525 20.5036 52.259C19.9463 52.5117 19.3847 52.7515 18.8382 53.0258C18.5682 53.1619 18.3004 53.3088 18.0347 53.4578C17.8187 53.5831 17.5854 53.7084 17.3737 53.8509C17.4342 53.6673 17.499 53.4816 17.5703 53.3001C17.7638 52.7873 17.9837 52.2848 18.2291 51.7946Z" fill="#263238"/>
<path d="M17.6921 50.4368C17.6921 50.4195 17.6641 50.4195 17.6641 50.4368C17.6878 50.7759 17.6986 51.115 17.7353 51.4541C17.7353 51.4582 17.7369 51.462 17.7398 51.4648C17.7426 51.4677 17.7465 51.4693 17.7505 51.4693C17.7545 51.4693 17.7583 51.4677 17.7612 51.4648C17.764 51.462 17.7656 51.4582 17.7656 51.4541C17.7526 51.1129 17.7116 50.7759 17.6921 50.4368Z" fill="#263238"/>
<path d="M20.7556 51.5694C20.3539 51.7314 19.9521 51.8826 19.5547 52.0511C19.5547 52.0511 19.5547 52.0727 19.5547 52.0684C19.9586 51.9172 20.356 51.753 20.7578 51.5953C20.7794 51.5888 20.7708 51.5629 20.7556 51.5694Z" fill="#263238"/>
<path d="M21.3609 48.8323C20.9707 49.0117 20.5919 49.2152 20.2269 49.4414C20.2074 49.4522 20.2269 49.4803 20.2441 49.4695C20.6157 49.2535 20.9915 49.0375 21.376 48.856C21.3868 48.8474 21.3868 48.8172 21.3609 48.8323Z" fill="#263238"/>
<path d="M21.2606 68.0098H12.0547V77.7125H21.2606V68.0098Z" fill="#37474F"/>
<path d="M11.8928 71.4453H11.4219V88.0644H11.8928V71.4453Z" fill="#263238"/>
<path d="M21.8459 71.4453H21.375V88.0644H21.8459V71.4453Z" fill="#263238"/>
<path d="M17.1193 71.4453H16.6484V88.0644H17.1193V71.4453Z" fill="#263238"/>
<path d="M21.6152 77.0898H11.6641V78.4334H21.6152V77.0898Z" fill="#263238"/>
<path d="M17.9531 81.2346C17.9549 83.6849 18.8821 86.0441 20.549 87.84C22.216 89.6359 24.4997 90.736 26.943 90.92V90.9459H81.9539C84.8862 90.9409 87.7042 89.8079 89.8239 87.7817C91.9436 85.7555 93.2024 82.9914 93.3396 80.0623C93.4768 77.1332 92.4818 74.2636 90.5607 72.0482C88.6397 69.8327 85.94 68.4413 83.021 68.1622C82.8885 63.6943 81.2032 59.4121 78.255 56.0523C75.3068 52.6925 71.2799 50.4651 66.867 49.7532C62.4541 49.0413 57.931 49.8895 54.0759 52.1518C50.2207 54.4141 47.2744 57.9491 45.7437 62.1488C44.1611 61.3502 42.4123 60.9366 40.6396 60.9414C37.7339 60.9408 34.9372 62.0482 32.8197 64.0381C30.7022 66.028 29.4232 68.7505 29.2434 71.6506C28.7217 71.5635 28.1935 71.5201 27.6645 71.521C25.0892 71.5233 22.6201 72.5475 20.7993 74.3687C18.9785 76.1899 17.9548 78.6593 17.9531 81.2346Z" fill="#C53F3F"/>
<g opacity="0.1">
<path d="M17.9531 81.2346C17.9549 83.6849 18.8821 86.0441 20.549 87.84C22.216 89.6359 24.4997 90.736 26.943 90.92V90.9459H81.9539C84.8862 90.9409 87.7042 89.8079 89.8239 87.7817C91.9436 85.7555 93.2024 82.9914 93.3396 80.0623C93.4768 77.1332 92.4818 74.2636 90.5607 72.0482C88.6397 69.8327 85.94 68.4413 83.021 68.1622C82.8885 63.6943 81.2032 59.4121 78.255 56.0523C75.3068 52.6925 71.2799 50.4651 66.867 49.7532C62.4541 49.0413 57.931 49.8895 54.0759 52.1518C50.2207 54.4141 47.2744 57.9491 45.7437 62.1488C44.1611 61.3502 42.4123 60.9366 40.6396 60.9414C37.7339 60.9408 34.9372 62.0482 32.8197 64.0381C30.7022 66.028 29.4232 68.7505 29.2434 71.6506C28.7217 71.5635 28.1935 71.5201 27.6645 71.521C25.0892 71.5233 22.6201 72.5475 20.7993 74.3687C18.9785 76.1899 17.9548 78.6593 17.9531 81.2346Z" fill="black"/>
</g>
<path d="M14.625 81.2346C14.6268 83.6849 15.5539 86.0441 17.2209 87.84C18.8878 89.6359 21.1715 90.736 23.6149 90.92V90.9459H78.6215C81.5549 90.9442 84.3751 89.8135 86.4973 87.7883C88.6195 85.7632 89.8808 82.9989 90.0197 80.0688C90.1586 77.1387 89.1644 74.2675 87.2433 72.0507C85.3222 69.8338 82.6216 68.4415 79.7015 68.1622C79.569 63.6943 77.8838 59.4121 74.9355 56.0523C71.9873 52.6925 67.9604 50.4651 63.5475 49.7532C59.1346 49.0413 54.6116 49.8895 50.7564 52.1518C46.9012 54.4141 43.9549 57.9491 42.4242 62.1488C40.8417 61.3498 39.0928 60.9361 37.3201 60.9414C34.4129 60.9381 31.6141 62.0445 29.495 64.0347C27.3759 66.025 26.0963 68.749 25.9175 71.6506C25.3957 71.5636 24.8675 71.5202 24.3385 71.521C21.7629 71.5228 19.2932 72.5467 17.4719 74.368C15.6507 76.1892 14.6267 78.6589 14.625 81.2346Z" fill="#C53F3F"/>
<path d="M46.3636 70.2951L44.5859 68.9256C45.7043 67.4784 47.2102 66.3782 48.9289 65.7527C50.6476 65.1272 52.5085 65.0022 54.2954 65.3922C56.0823 65.7821 57.7219 66.671 59.0237 67.9557C60.3256 69.2403 61.2362 70.8679 61.6499 72.6495L59.464 73.1571C59.1481 71.7868 58.4493 70.5346 57.4492 69.5461C56.4491 68.5576 55.1887 67.8736 53.8148 67.5737C52.441 67.2738 51.0102 67.3704 49.6891 67.8522C48.3681 68.334 47.211 69.1811 46.3528 70.2951H46.3636Z" fill="white"/>
<path d="M57.2344 71.9917L60.3793 77.409L63.5005 71.9766L57.2344 71.9917Z" fill="white"/>
<g opacity="0.2">
<path d="M46.3636 70.2951L44.5859 68.9256C45.7043 67.4784 47.2102 66.3782 48.9289 65.7527C50.6476 65.1272 52.5085 65.0022 54.2954 65.3922C56.0823 65.7821 57.7219 66.671 59.0237 67.9557C60.3256 69.2403 61.2362 70.8679 61.6499 72.6495L59.464 73.1571C59.1481 71.7868 58.4493 70.5346 57.4492 69.5461C56.4491 68.5576 55.1887 67.8736 53.8148 67.5737C52.441 67.2738 51.0102 67.3704 49.6891 67.8522C48.3681 68.334 47.211 69.1811 46.3528 70.2951H46.3636Z" fill="white"/>
<path d="M57.2422 71.9936L60.3871 77.4109L63.5083 71.9785L57.2422 71.9936Z" fill="white"/>
</g>
<path d="M49.5008 83.5084C47.9021 82.9948 46.4637 82.0759 45.3258 80.8411C44.1879 79.6062 43.3893 78.0977 43.0078 76.4625L45.1937 75.957C45.5181 77.3673 46.2476 78.6521 47.2924 79.6533C48.3373 80.6545 49.652 81.3285 51.0748 81.5924C52.4977 81.8563 53.9666 81.6986 55.3011 81.1388C56.6355 80.5789 57.7772 79.6412 58.5857 78.441L60.4477 79.6938C59.2747 81.421 57.5767 82.7246 55.6051 83.4116C53.6335 84.0987 51.4931 84.1326 49.5008 83.5084Z" fill="white"/>
<path d="M47.4281 77.1304L44.2831 71.7109L41.1641 77.1433L47.4281 77.1304Z" fill="white"/>
<path d="M41.3598 35.5917L30.3978 41.0997L23.3281 27.0295L31.467 22.9384L34.2901 21.5215L35.6358 24.202L41.3598 35.5917Z" fill="white"/>
<path d="M41.3629 35.5928L30.4161 41.131L30.388 41.1461L30.3729 41.1159L23.2837 27.0543L23.2578 27.0068L23.3075 26.983L34.276 21.488L34.3084 21.4707L34.3257 21.5053L41.3629 35.5928ZM41.3629 35.5928L34.2587 21.5398L34.3084 21.5571L23.355 27.0781L23.3788 27.0068L30.4312 41.0857L30.3858 41.0705L41.3629 35.5928Z" fill="#263238"/>
<path d="M25.7651 29.216L34.6953 24.7285L34.5139 24.3676L25.5837 28.8551L25.7651 29.216Z" fill="#DBDBDB"/>
<path d="M26.226 30.1281L35.1562 25.6406L34.9749 25.2797L26.0447 29.7672L26.226 30.1281Z" fill="#DBDBDB"/>
<path d="M26.687 31.0383L35.6172 26.5508L35.4358 26.1899L26.5056 30.6774L26.687 31.0383Z" fill="#DBDBDB"/>
<path d="M27.1401 31.9504L36.0703 27.4629L35.8889 27.102L26.9587 31.5895L27.1401 31.9504Z" fill="#DBDBDB"/>
<path d="M27.601 32.8645L36.5312 28.377L36.3499 28.016L27.4197 32.5036L27.601 32.8645Z" fill="#DBDBDB"/>
<path d="M28.062 33.7727L36.9922 29.2852L36.8108 28.9242L27.8806 33.4118L28.062 33.7727Z" fill="#DBDBDB"/>
<path d="M28.5151 34.6848L37.4453 30.1973L37.2639 29.8363L28.3337 34.3239L28.5151 34.6848Z" fill="#DBDBDB"/>
<path d="M28.976 35.5988L37.9062 31.1113L37.7249 30.7504L28.7947 35.2379L28.976 35.5988Z" fill="#DBDBDB"/>
<path d="M29.437 36.511L38.3672 32.0234L38.1858 31.6625L29.2556 36.15L29.437 36.511Z" fill="#DBDBDB"/>
<path d="M29.8901 37.4231L38.8203 32.9355L38.6389 32.5746L29.7087 37.0622L29.8901 37.4231Z" fill="#DBDBDB"/>
<path d="M30.351 38.3332L39.2812 33.8457L39.0999 33.4848L30.1697 37.9723L30.351 38.3332Z" fill="#DBDBDB"/>
<path d="M30.8042 39.2453L39.7344 34.7578L39.553 34.3969L30.6228 38.8844L30.8042 39.2453Z" fill="#DBDBDB"/>
<path d="M47.4236 39.6347L47.4141 25.9922L33.7715 26.0017L33.781 39.6443L47.4236 39.6347Z" fill="#455A64"/>
<path d="M39.2691 36.7572C39.2665 37.0115 39.1884 37.2593 39.0447 37.4691C38.901 37.6789 38.6982 37.8412 38.462 37.9355C38.2258 38.0298 37.967 38.0518 37.7183 37.9987C37.4696 37.9456 37.2423 37.8198 37.0652 37.6373C36.8882 37.4548 36.7693 37.2237 36.7238 36.9735C36.6783 36.7233 36.7082 36.4653 36.8097 36.2321C36.9111 35.9989 37.0796 35.8011 37.2937 35.6639C37.5077 35.5266 37.7578 35.4561 38.012 35.4612C38.3499 35.4686 38.6712 35.6087 38.9065 35.8513C39.1418 36.0938 39.2721 36.4193 39.2691 36.7572Z" fill="white"/>
<path d="M39.3924 30.2988L38.4141 30.2793L38.2858 36.7235L39.2641 36.7429L39.3924 30.2988Z" fill="white"/>
<path d="M43.4566 34.974C43.454 35.2283 43.3759 35.4761 43.2322 35.6859C43.0885 35.8957 42.8857 36.058 42.6495 36.1523C42.4133 36.2466 42.1545 36.2686 41.9058 36.2155C41.6571 36.1624 41.4298 36.0366 41.2527 35.8541C41.0757 35.6716 40.9568 35.4405 40.9113 35.1903C40.8658 34.9401 40.8957 34.6821 40.9972 34.4489C41.0986 34.2157 41.2671 34.0179 41.4812 33.8807C41.6952 33.7434 41.9453 33.6729 42.1995 33.678C42.5374 33.6854 42.8587 33.8255 43.094 34.0681C43.3293 34.3106 43.4596 34.6361 43.4566 34.974Z" fill="white"/>
<path d="M43.5799 28.5115L42.6016 28.4922L42.4745 34.9364L43.4527 34.9557L43.5799 28.5115Z" fill="white"/>
<path d="M43.5803 28.5277L38.3984 31.1391L38.4157 30.2794L43.5997 27.668L43.5803 28.5277Z" fill="white"/>
<path d="M43.5512 30.1509L38.3672 32.7645L38.3845 31.9005L43.5685 29.2891L43.5512 30.1509Z" fill="white"/>
<path d="M58.3935 16.7528L58.1797 16.7355L58.1948 16.5195L58.4108 16.5368L58.3935 16.7528Z" fill="#263238"/>
<path d="M45.6647 20.9778L45.5156 20.8223C45.6128 20.7294 45.7187 20.6322 45.8331 20.5285L45.9757 20.6905C45.8655 20.7899 45.7619 20.8871 45.6647 20.9778ZM46.2975 20.4119L46.1571 20.2456C46.263 20.157 46.3731 20.0663 46.4919 19.9734L46.6259 20.1419C46.5114 20.2326 46.4012 20.3233 46.2975 20.4119ZM46.9628 19.8827L46.8332 19.7099C46.9434 19.6256 47.06 19.5414 47.181 19.455L47.3063 19.6321C47.1875 19.7164 47.073 19.7984 46.9628 19.8827ZM47.6562 19.3902L47.5352 19.2109C47.6519 19.1332 47.7728 19.0554 47.8981 18.9776L48.0126 19.1612C47.8895 19.2368 47.7707 19.3146 47.6562 19.3902ZM48.3841 18.9388L48.2739 18.753L48.6476 18.537L48.7535 18.7271C48.6174 18.7919 48.4943 18.8696 48.3841 18.9388ZM49.1271 18.5262L49.0278 18.3361C49.1531 18.2692 49.2805 18.2065 49.4123 18.1417L49.5073 18.3361L49.1271 18.5262ZM49.8918 18.1547L49.8011 17.9581C49.9307 17.8998 50.0624 17.8415 50.1963 17.7853L50.2806 17.9862C50.1402 18.0402 50.0106 18.0985 49.8831 18.1547H49.8918ZM50.6737 17.8242L50.5959 17.6233C50.7277 17.5715 50.8616 17.5218 50.9977 17.4721L51.0711 17.6752L50.6737 17.8242ZM51.4729 17.5369L51.4059 17.3209C51.5399 17.2756 51.6759 17.2324 51.8163 17.1913L51.879 17.4073C51.7321 17.4505 51.5982 17.4959 51.4643 17.5369H51.4729ZM52.2721 17.2907L52.2138 17.0747C52.352 17.0358 52.4903 17.0012 52.6307 16.9667L52.6825 17.1827C52.5507 17.2194 52.4125 17.254 52.2721 17.2907ZM53.0972 17.0876L53.0497 16.8716L53.4817 16.7852L53.5227 17.0012C53.3802 17.0286 53.2405 17.0574 53.1037 17.0876H53.0972ZM53.931 16.9278L53.8964 16.7118C54.0347 16.688 54.1772 16.6664 54.3284 16.647L54.3587 16.863C54.2161 16.8824 54.0757 16.904 53.9375 16.9278H53.931ZM54.7734 16.809L54.7475 16.593L55.1795 16.5498L55.1989 16.7658C55.0585 16.7788 54.9181 16.7917 54.7799 16.809H54.7734ZM55.6179 16.7312L55.605 16.5152L56.037 16.4915V16.7075L55.6179 16.7312ZM57.7434 16.7118C57.6008 16.7118 57.4583 16.6988 57.3114 16.6967V16.4807L57.7434 16.4958V16.7118ZM56.469 16.6945V16.4785H56.8513H56.8988V16.6945H56.8513H56.469Z" fill="#263238"/>
<path d="M45.2202 21.4315L45.0625 21.2846L45.2115 21.127L45.3671 21.2782L45.2202 21.4315Z" fill="#263238"/>
<path d="M45.5543 19.9824L45.7509 20.0688L45.1807 21.3627L46.4486 20.7406L46.5458 20.9328L44.7422 21.8184L45.5543 19.9824Z" fill="#263238"/>
<path d="M86.6569 35.3059C86.6569 35.3059 86.6418 35.2324 86.6094 35.1028L86.8254 35.0488C86.8599 35.1892 86.8751 35.2648 86.8751 35.2648L86.6569 35.3059Z" fill="#263238"/>
<path d="M86.4914 34.6877C86.4547 34.5645 86.4072 34.4285 86.3532 34.2751L86.5562 34.2017C86.6124 34.3572 86.6599 34.4976 86.6988 34.6229L86.4914 34.6877ZM86.1976 33.869C86.1458 33.7437 86.0896 33.6098 86.0292 33.4694L86.2257 33.383C86.2884 33.5256 86.3467 33.6595 86.3985 33.7891L86.1976 33.869ZM85.8456 33.0741C85.7851 32.9489 85.7203 32.8193 85.6512 32.6853L85.8434 32.586C85.9147 32.7221 85.9795 32.8538 86.0421 32.9813L85.8456 33.0741ZM85.446 32.3009C85.379 32.1777 85.3056 32.0525 85.23 31.925L85.4157 31.8149C85.4935 31.9445 85.5648 32.0719 85.6317 32.1972L85.446 32.3009ZM85.0032 31.5535C84.9276 31.4325 84.8476 31.3116 84.7656 31.1885L84.9448 31.0675C85.0284 31.1928 85.1083 31.3159 85.1846 31.4369L85.0032 31.5535ZM84.5172 30.8299C84.4351 30.7133 84.3508 30.5966 84.2623 30.4778L84.4351 30.3482L84.6943 30.7046L84.5172 30.8299ZM83.9966 30.1322L83.7223 29.7953L83.8886 29.657C83.9836 29.7715 84.0744 29.886 84.1651 29.9983L83.9966 30.1322ZM83.4393 29.4648C83.3443 29.3568 83.2471 29.2488 83.1477 29.1408L83.3076 28.9939C83.4069 29.1041 83.5063 29.2099 83.6013 29.3222L83.4393 29.4648ZM82.8475 28.8168C82.7481 28.7131 82.6466 28.6008 82.5408 28.5079L82.6941 28.3524C82.8 28.4582 82.9101 28.5684 83.003 28.6656L82.8475 28.8168ZM82.2276 28.2055C82.1239 28.1061 82.0116 28.0089 81.9079 27.9096L82.0526 27.7497L82.3766 28.0478L82.2276 28.2055ZM81.5796 27.6223C81.4716 27.5294 81.3636 27.4365 81.2448 27.3437L81.383 27.1773C81.4975 27.2702 81.6098 27.3653 81.72 27.4581L81.5796 27.6223ZM80.9056 27.0715C80.7933 26.9829 80.6767 26.8944 80.56 26.8058L80.6896 26.633C80.8084 26.7216 80.9229 26.8123 81.0396 26.9009L80.9056 27.0715ZM80.208 26.5488C80.0913 26.4645 79.9725 26.3825 79.8516 26.2982L79.9725 26.1211L80.3332 26.3738L80.208 26.5488Z" fill="#263238"/>
<path d="M79.4939 26.062L79.3125 25.9432L79.4291 25.7617L79.6127 25.8805L79.4939 26.062Z" fill="#263238"/>
<path d="M80.7985 25.9892L80.7489 26.2009L79.3729 25.8769L80.2197 27.0109L80.0469 27.1383L78.8438 25.5312L80.7985 25.9892Z" fill="#263238"/>
<path d="M31.4269 44.1393L31.2109 44.1242L31.2282 43.9082L31.4421 43.9255L31.4269 44.1393Z" fill="#263238"/>
<path d="M35.5108 56.8079C35.4179 56.7107 35.3186 56.6048 35.217 56.4903L35.379 56.3456C35.4784 56.4579 35.5756 56.5616 35.6663 56.6588L35.5108 56.8079ZM34.9341 56.1599C34.8455 56.054 34.7548 55.9439 34.6619 55.8251L34.8304 55.6911C34.9211 55.8056 35.0119 55.9071 35.0983 56.0195L34.9341 56.1599ZM34.3984 55.4838C34.3142 55.3736 34.2278 55.257 34.1435 55.136L34.3206 55.0107C34.4049 55.1295 34.487 55.244 34.569 55.3542L34.3984 55.4838ZM33.8994 54.7818C33.8217 54.6651 33.7439 54.5442 33.6662 54.4189L33.8476 54.3044C33.9254 54.4275 34.0031 54.5463 34.0787 54.6608L33.8994 54.7818ZM33.4415 54.0517C33.3703 53.9307 33.299 53.8055 33.2255 53.678L33.4134 53.5722C33.4847 53.6996 33.5538 53.8227 33.6294 53.9415L33.4415 54.0517ZM33.0246 53.2979C32.9577 53.1726 32.8929 53.0451 32.8303 52.9134L33.0246 52.8183C33.0873 52.9479 33.1499 53.0754 33.2147 53.1985L33.0246 53.2979ZM32.6466 52.5246C32.5883 52.395 32.53 52.2632 32.4738 52.1293L32.6726 52.0451C32.7287 52.1768 32.7849 52.3064 32.8432 52.4339L32.6466 52.5246ZM32.3118 51.7297C32.26 51.5979 32.2103 51.464 32.1606 51.3279L32.3637 51.2545L32.5127 51.6519L32.3118 51.7297ZM32.0203 50.9197C31.9749 50.7858 31.9317 50.6497 31.8906 50.5093L32.1066 50.4467C32.1498 50.5849 32.1909 50.7188 32.2363 50.8527L32.0203 50.9197ZM31.7697 50.0967C31.733 49.9585 31.6962 49.8203 31.6617 49.6799L31.8777 49.628C31.9122 49.7663 31.949 49.9045 31.9857 50.0384L31.7697 50.0967ZM31.5537 49.2608C31.5234 49.1204 31.4954 48.98 31.4673 48.8288L31.6833 48.7878C31.7114 48.9282 31.7394 49.0664 31.7697 49.2025L31.5537 49.2608ZM31.3917 48.4141C31.3679 48.2737 31.3463 48.1333 31.3269 47.9821L31.5429 47.9519C31.5623 48.0923 31.5839 48.2327 31.6077 48.3709L31.3917 48.4141ZM31.2707 47.5631C31.2556 47.4227 31.2405 47.2779 31.2275 47.1311L31.4435 47.1116C31.4565 47.2556 31.4716 47.396 31.4889 47.5328L31.2707 47.5631ZM31.193 46.6991C31.193 46.5587 31.1757 46.4139 31.1692 46.2671H31.3852C31.3852 46.4096 31.3982 46.5522 31.409 46.6991H31.193ZM31.1563 45.8351C31.1563 45.7098 31.1563 45.5823 31.1563 45.4527V45.4052H31.3723V45.4527C31.3723 45.5802 31.3723 45.7055 31.3723 45.8307L31.1563 45.8351ZM31.3723 44.9711H31.1563C31.1563 44.8285 31.1562 44.6859 31.1714 44.5391H31.3874C31.3938 44.7119 31.3874 44.8479 31.3852 44.9905L31.3723 44.9711Z" fill="#263238"/>
<path d="M35.978 57.2577L35.8203 57.1065L35.9715 56.9531L36.1249 57.1L35.978 57.2577Z" fill="#263238"/>
<path d="M34.6719 56.7668L34.7604 56.5681L36.0543 57.1405L35.43 55.8704L35.6244 55.7754L36.51 57.579L34.6719 56.7668Z" fill="#263238"/>
<path d="M76.8535 18.7988H60.0703V29.6507H76.8535V18.7988Z" fill="#C53F3F"/>
<path d="M65.3602 17.6758H60.0703V18.799H65.6626L65.3602 17.6758Z" fill="#C53F3F"/>
<g opacity="0.1">
<path d="M76.8535 18.7988H60.0703V29.6507H76.8535V18.7988Z" fill="black"/>
<path d="M65.3602 17.6758H60.0703V18.799H65.6626L65.3602 17.6758Z" fill="black"/>
</g>
<path d="M73.276 25.9266L62.3594 25.9201L62.3659 11.9082L70.4723 11.9125L73.2803 14.5844L73.276 25.9266Z" fill="#C53F3F"/>
<path opacity="0.6" d="M73.276 25.9266L62.3594 25.9201L62.3659 11.9082L70.4723 11.9125L73.2803 14.5844L73.276 25.9266Z" fill="white"/>
<path d="M70.4787 11.9121L73.2867 14.584L70.4766 14.5819L70.4787 11.9121Z" fill="#C53F3F"/>
<path opacity="0.4" d="M70.4787 11.9121L73.2867 14.584L70.4766 14.5819L70.4787 11.9121Z" fill="white"/>
<path d="M63.4304 14.6199L69.5 14.623L69.5002 14.2623L63.4306 14.2591L63.4304 14.6199Z" fill="white"/>
<path d="M63.4304 15.5261L69.5 15.5293L69.5002 15.1686L63.4306 15.1654L63.4304 15.5261Z" fill="white"/>
<path d="M63.4304 16.4363L69.5 16.4395L69.5002 16.0787L63.4306 16.0756L63.4304 16.4363Z" fill="white"/>
<path d="M63.4354 17.343L72.3281 17.3477L72.3283 16.9869L63.4356 16.9823L63.4354 17.343Z" fill="white"/>
<path d="M63.4276 18.2532L72.3203 18.2578L72.3205 17.8971L63.4278 17.8924L63.4276 18.2532Z" fill="white"/>
<path d="M63.4276 19.1575L72.3203 19.1621L72.3205 18.8014L63.4278 18.7967L63.4276 19.1575Z" fill="white"/>
<path d="M63.4276 20.0676L72.3203 20.0723L72.3205 19.7115L63.4278 19.7069L63.4276 20.0676Z" fill="white"/>
<path d="M63.4276 20.9739L72.3203 20.9785L72.3205 20.6178L63.4278 20.6131L63.4276 20.9739Z" fill="white"/>
<path d="M63.4276 21.884L72.3203 21.8887L72.3205 21.528L63.4278 21.5233L63.4276 21.884Z" fill="white"/>
<path d="M63.4276 22.7922L72.3203 22.7969L72.3205 22.4362L63.4278 22.4315L63.4276 22.7922Z" fill="white"/>
<path d="M63.4276 23.7004L72.3203 23.7051L72.3205 23.3444L63.4278 23.3397L63.4276 23.7004Z" fill="white"/>
<path d="M63.4276 24.6086L72.3203 24.6133L72.3205 24.2526L63.4278 24.2479L63.4276 24.6086Z" fill="white"/>
<path d="M76.8138 29.6503H60.0306L58.875 19.6992H75.6604L76.8138 29.6503Z" fill="#C53F3F"/>
<path d="M64.0477 18.666H58.7578L58.8766 19.6985H64.471L64.0477 18.666Z" fill="#C53F3F"/>
<path d="M75.6346 76.6602L69.4073 82.0364C68.2107 83.0581 67.1804 83.9804 66.6922 84.4988C66.5655 84.6091 66.4651 84.7464 66.3984 84.9006C66.3984 84.9006 66.3984 84.9006 66.3984 84.9157C66.4632 85.4773 74.3429 95.2707 74.7339 95.5191C75.1248 95.7675 75.8636 94.6767 75.8614 94.0525C75.8592 93.4282 74.5157 88.3436 74.5157 88.3436L80.6868 82.9134L75.6346 76.6602Z" fill="#FFC4C0"/>
<path d="M75.1861 90.9994C75.5188 92.3407 75.8471 93.7512 75.8514 94.0622C75.8514 94.6865 75.1127 95.7902 74.7239 95.5289C74.3351 95.2675 66.4533 85.487 66.3906 84.9254C66.3906 84.9254 66.3906 84.9254 66.3906 84.9103C66.4575 84.7557 66.5587 84.6183 66.6865 84.5086C67.0818 84.0766 67.8378 83.4005 68.7472 82.6099C68.9632 82.4263 69.1792 82.2384 69.3952 82.0462L75.6225 76.6699L80.6639 82.9166L74.5165 88.3447C74.5165 88.3447 74.8578 89.6407 75.1969 91.0037L75.1861 90.9994Z" fill="#FFC4C0"/>
<path d="M75.8514 94.0617C75.8514 94.6859 75.1127 95.7897 74.7239 95.5283C74.3351 95.267 66.4533 85.4865 66.3906 84.9249C66.3906 84.9249 66.3906 84.9249 66.3906 84.9098C66.4575 84.7551 66.5587 84.6177 66.6865 84.508C67.0818 84.076 67.8378 83.3999 68.7472 82.6094C70.2246 85.3677 74.2703 92.7787 75.0371 92.7009C75.3093 92.6728 75.2725 91.8131 75.1797 91.0074C75.5188 92.3402 75.8471 93.7442 75.8514 94.0617Z" fill="#263238"/>
<path d="M78.8914 70.3955C78.5112 72.6462 69.5234 81.8651 69.5234 81.8651L76.2432 89.127C76.2432 89.127 88.9872 75.5514 88.1232 70.6331C87.3866 66.3541 80.3926 49.2793 80.3926 49.2793L72.9686 49.5191C72.9686 49.5191 79.2672 68.1815 78.8914 70.3955Z" fill="#263238"/>
<path d="M78.8914 70.3955C78.5112 72.6462 69.5234 81.8651 69.5234 81.8651L76.2432 89.127C76.2432 89.127 88.9872 75.5514 88.1232 70.6331C87.3866 66.3541 80.3926 49.2793 80.3926 49.2793L72.9686 49.5191C72.9686 49.5191 79.2672 68.1815 78.8914 70.3955Z" fill="#37474F"/>
<path d="M76.9135 87.3273C76.0193 86.284 76.2915 86.5713 75.3843 85.5388C74.9415 85.0334 72.0255 81.7178 71.5308 81.3203C71.52 81.3203 71.5027 81.3203 71.5092 81.3376C71.8505 81.8754 74.8227 85.1392 75.2763 85.636C76.2007 86.6512 75.948 86.3488 76.8833 87.364C76.8941 87.3726 76.9308 87.3467 76.9135 87.3273Z" fill="#263238"/>
<path d="M79.783 69.2744C79.6577 68.7214 79.5195 68.1684 79.3834 67.6155C79.1055 66.488 78.8131 65.364 78.5064 64.2437C77.9002 62.0232 77.2471 59.8157 76.5473 57.6212C75.8432 55.4201 75.1023 53.2234 74.2599 51.0699C74.1562 50.8042 74.0439 50.5407 73.9423 50.275C73.9405 50.2713 73.9373 50.2685 73.9335 50.2669C73.9297 50.2653 73.9254 50.2652 73.9215 50.2665C73.9176 50.2678 73.9143 50.2705 73.9122 50.274C73.91 50.2776 73.9093 50.2817 73.9099 50.2858C74.6487 52.4458 75.4068 54.6058 76.1023 56.7658C76.7979 58.9258 77.4437 61.1096 78.0593 63.2976C78.3682 64.3971 78.6576 65.5008 78.9427 66.6068C79.0831 67.1511 79.2192 67.6868 79.3531 68.2397C79.5167 68.7907 79.6387 69.3531 79.7182 69.9224C79.7536 70.4635 79.6184 71.0022 79.3315 71.4624C79.068 71.9268 78.7548 72.3653 78.4524 72.8038C77.8455 73.6851 72.0221 80.6144 71.8342 80.7958C71.8191 80.8109 71.8342 80.8325 71.8579 80.8174C72.6442 80.0636 77.5906 74.3374 78.2148 73.4734C78.5237 73.0414 78.8239 72.5964 79.1177 72.1515C79.4129 71.7472 79.6472 71.3018 79.8132 70.8296C79.9353 70.317 79.9249 69.7818 79.783 69.2744Z" fill="#263238"/>
<path d="M79.1231 49.3203L78.3477 67.0496C76.8659 61.0383 72.9844 49.519 72.9844 49.519L79.1231 49.3203Z" fill="#263238"/>
<path d="M77.7578 85.8166C77.7578 85.8166 79.6133 93.5688 79.6133 93.5732C79.6845 95.1456 79.7774 96.5194 79.8897 97.2279C79.8887 97.2314 79.8887 97.2351 79.8897 97.2387C79.8986 97.407 79.9459 97.571 80.028 97.7182V97.729C80.5097 98.0228 93.0787 97.8111 93.515 97.6577C93.9513 97.5044 93.5431 96.2472 93.0485 95.8671C92.5538 95.4869 87.7046 93.4155 87.7046 93.4155L85.7714 85.6719L77.7578 85.8166Z" fill="#FFC4C0"/>
<path d="M93.5283 97.6552C93.0963 97.8107 80.5229 98.0246 80.0412 97.7287V97.7179C79.9591 97.5707 79.9119 97.4066 79.903 97.2383C79.9017 97.2349 79.9017 97.231 79.903 97.2275C79.8144 96.6638 79.7367 95.6745 79.6719 94.5016C82.886 95.02 90.9449 96.2426 91.3359 95.5967C91.4871 95.3483 90.6879 94.8083 89.947 94.3828C91.2948 94.9747 92.8047 95.6637 93.0704 95.8667C93.5499 96.2469 93.9603 97.504 93.5283 97.6552Z" fill="#263238"/>
<path d="M80.3231 49.2813C80.075 50.5116 79.9026 51.7559 79.8069 53.0073C79.701 54.5646 79.552 55.9449 79.3511 56.1242C79.1502 56.3034 77.973 57.1156 77.5864 57.3705C77.5864 57.3705 81.6018 68.339 82.6667 72.0045C84.2068 77.3181 88.0062 93.287 88.0062 93.287L79.2712 93.5678C79.2712 93.5678 76.1197 78.3506 74.7957 73.2875C73.6552 68.9459 69.4237 55.9449 69.4237 55.9449C68.9883 54.9456 68.7722 53.8645 68.7901 52.7746C68.808 51.6847 69.0594 50.6114 69.5274 49.6269C69.5274 49.6269 80.3253 49.277 80.3231 49.2813Z" fill="#37474F"/>
<path d="M87.6368 91.5977C86.2652 91.6344 86.6583 91.5977 85.2846 91.6581C84.615 91.6819 80.2021 91.8547 79.58 91.9886C79.5671 91.9886 79.5671 92.0167 79.58 92.0167C80.2108 92.0901 84.6193 91.8417 85.2911 91.8007C86.6605 91.7229 86.2674 91.7294 87.6368 91.6344C87.6649 91.6365 87.6627 91.5977 87.6368 91.5977Z" fill="#263238"/>
<path d="M79.954 55.6663C79.1211 56.1601 78.3326 56.7253 77.5974 57.3554C77.5693 57.3813 77.5974 57.4267 77.632 57.4051C78.4312 56.8673 79.252 56.3424 80.0209 55.7613C80.0322 55.752 80.0395 55.7387 80.0414 55.7242C80.0433 55.7096 80.0397 55.6949 80.0313 55.6829C80.0228 55.671 80.0102 55.6626 79.9959 55.6595C79.9816 55.6564 79.9666 55.6588 79.954 55.6663Z" fill="#263238"/>
<path d="M79.0917 49.6539C79.0917 49.6237 79.0312 49.628 79.0377 49.6539C79.2386 50.6864 79.3444 51.5979 79.4394 52.5893C79.4826 53.0451 79.5906 55.5896 78.7785 55.5572C78.6424 55.5572 78.5517 55.4362 78.4934 55.2418C78.4479 54.9853 78.4348 54.724 78.4545 54.4642C78.4437 53.9285 78.4134 53.3842 78.3594 52.8637C78.2661 51.8713 78.0707 50.8913 77.7762 49.939C77.7738 49.9335 77.7696 49.929 77.7643 49.9263C77.759 49.9236 77.7528 49.9228 77.747 49.924C77.7411 49.9253 77.7359 49.9286 77.7322 49.9333C77.7284 49.938 77.7265 49.9438 77.7266 49.9498C78.0037 51.2984 78.1792 52.666 78.2514 54.0409C78.2752 54.704 78.1348 55.7343 78.8282 55.7062C79.5215 55.6781 79.6706 53.9782 79.6706 53.5095C79.6451 52.2047 79.4505 50.9087 79.0917 49.6539Z" fill="#263238"/>
<path d="M78.8078 55.6265C78.7699 55.8068 78.7439 55.9894 78.73 56.173C78.7046 56.3159 78.7046 56.4621 78.73 56.605C78.73 56.6309 78.7754 56.6266 78.7862 56.605C78.8427 56.4627 78.8776 56.3127 78.8898 56.1601C78.9201 55.9916 78.9525 55.8209 78.9762 55.6503C78.9735 55.6313 78.9647 55.6137 78.9511 55.6001C78.9376 55.5866 78.9199 55.5778 78.9009 55.5751C78.8819 55.5724 78.8626 55.576 78.8458 55.5853C78.8289 55.5945 78.8156 55.609 78.8078 55.6265Z" fill="#263238"/>
<path d="M78.044 87.0918C78.0159 86.8909 77.9813 86.69 77.9468 86.4892C77.8798 86.1025 77.8021 85.7202 77.7308 85.3357C77.5861 84.5646 77.4284 83.7935 77.2664 83.0245C76.9424 81.4931 76.5773 79.966 76.1864 78.4453C75.9704 77.5813 75.7241 76.7389 75.4649 75.8922C75.4455 75.8339 75.3634 75.8663 75.3764 75.9224C75.5405 76.7 75.7025 77.4776 75.8883 78.2509C76.0741 79.0242 76.2555 79.7932 76.4348 80.5664C76.7912 82.0914 77.1238 83.6228 77.4781 85.15C77.5774 85.582 77.6703 86.014 77.7675 86.446C77.8172 86.662 77.869 86.878 77.9209 87.094C77.9727 87.31 78.0483 87.5152 78.0915 87.7312C78.0915 87.7528 78.1261 87.742 78.1217 87.7204C78.085 87.5108 78.0764 87.2992 78.044 87.0918Z" fill="#263238"/>
<path d="M83.6921 75.2938C83.3552 73.8552 82.9167 72.4383 82.476 71.0278C81.5904 68.1874 80.5644 65.3945 79.5406 62.6038L78.655 60.1889C78.5081 59.7871 77.791 57.6163 77.6916 57.4111C77.6909 57.4089 77.6898 57.4068 77.6883 57.4049C77.6867 57.4031 77.6849 57.4016 77.6828 57.4005C77.6806 57.3994 77.6783 57.3987 77.676 57.3985C77.6736 57.3983 77.6712 57.3985 77.669 57.3993C77.6667 57.4 77.6646 57.4011 77.6627 57.4026C77.6609 57.4042 77.6594 57.406 77.6583 57.4081C77.6572 57.4102 77.6565 57.4126 77.6563 57.4149C77.6561 57.4173 77.6564 57.4197 77.6571 57.4219C77.8731 58.1628 78.1647 59.2428 78.4066 59.9751C78.6485 60.7073 78.9034 61.4179 79.154 62.1351C79.6464 63.5499 80.1454 64.9625 80.6249 66.3816C81.5732 69.1896 82.5149 71.9976 83.3033 74.8488C83.5193 75.648 83.7353 76.4472 83.9513 77.2507C84.1673 78.0543 84.3336 78.8643 84.5302 79.6678C84.5302 79.6894 84.5712 79.6829 84.5691 79.6678C84.3704 78.1925 84.0226 76.7388 83.6921 75.2938Z" fill="#263238"/>
<path d="M78.5101 83.0495C77.9399 80.2998 77.2768 77.5696 76.5488 74.8588C75.8209 72.148 75.0174 69.4285 74.1448 66.7437C73.2721 64.0588 72.3109 61.4063 71.2892 58.7776C70.7794 57.5425 70.3437 56.2781 69.9846 54.9911C69.6541 53.7102 69.464 52.317 69.7211 51.0059C69.7838 50.6728 69.8719 50.3449 69.9846 50.0253C69.9846 50.0037 69.9608 49.9864 69.9522 50.008C68.9802 52.4898 69.7492 55.1445 70.6261 57.5313C71.1078 58.8273 71.6176 60.1233 72.0906 61.4452C72.5636 62.7671 73.0475 64.1409 73.4989 65.4973C74.3931 68.1858 75.2233 70.8952 75.9894 73.6254C76.7555 76.3556 77.4424 79.1017 78.05 81.8637C78.6678 84.6393 79.2013 87.4278 79.7413 90.2207C79.8126 90.5836 79.8688 90.9486 79.9292 91.3137C79.9292 91.3331 79.9638 91.3331 79.9616 91.3137C79.5361 88.5597 79.0804 85.7927 78.5101 83.0495Z" fill="#263238"/>
<path d="M79.4414 32.5651C80.7762 34.3082 79.8906 36.2479 80.3378 37.4964C80.6099 38.261 81.813 39.2611 81.9189 40.0884C82.0895 41.4621 80.908 41.6911 81.003 42.4385C81.1391 43.4947 82.474 43.6977 82.3703 45.3609C82.2666 47.0241 80.1369 48.3698 75.8169 47.9529C71.4969 47.5361 69.5248 45.4949 69.663 44.0952C69.8013 42.6955 71.2982 42.5378 71.607 41.5377C71.8058 40.8897 71.0368 40.2612 71.2485 39.0516C71.4602 37.842 72.7108 37.6973 73.0953 36.7145C73.4798 35.7317 73.4646 33.1375 75.2294 32.1893C76.9941 31.241 78.7847 31.7054 79.4414 32.5651Z" fill="#263238"/>
<path d="M79.2419 32.5629C79.63 32.9812 79.9109 33.4875 80.0605 34.0382C80.2129 34.6204 80.297 35.2185 80.3111 35.8202C80.3098 36.177 80.3489 36.5328 80.4277 36.8807C80.5179 37.1752 80.659 37.4515 80.8446 37.6972C81.214 38.2048 81.6914 38.6325 82.0002 39.1833C82.2962 39.7017 82.4733 40.3519 82.1925 40.9113C82.0391 41.218 81.7605 41.4362 81.5704 41.7127C81.3803 41.9891 81.2572 42.3175 81.4537 42.6091C81.6201 42.8575 81.9052 43.0151 82.1017 43.2333C82.3014 43.4482 82.4661 43.6931 82.5899 43.9591C82.7148 44.2239 82.7831 44.5118 82.7905 44.8045C82.7979 45.0971 82.7443 45.3882 82.6331 45.659C82.1082 46.9161 80.7237 47.3999 79.4903 47.6289C79.3175 47.6613 79.1447 47.6894 78.9719 47.7196C78.946 47.7196 78.933 47.6851 78.9611 47.6786C80.2053 47.4107 81.6525 47.0932 82.3609 45.9139C82.5178 45.6571 82.6137 45.3679 82.6414 45.0684C82.6691 44.7689 82.6278 44.467 82.5208 44.1859C82.4128 43.9068 82.2547 43.6499 82.0542 43.4277C81.862 43.2117 81.6222 43.0497 81.4213 42.8402C81.3203 42.7432 81.247 42.621 81.209 42.4862C81.1711 42.3513 81.1698 42.2088 81.2053 42.0734C81.3047 41.7808 81.4729 41.5164 81.6957 41.3023C81.9274 41.0795 82.0863 40.7919 82.1514 40.4771C82.182 40.1644 82.1268 39.8493 81.9916 39.5656C81.7432 38.9889 81.2896 38.5483 80.8986 38.0687C80.4923 37.6137 80.2392 37.0425 80.175 36.4358C80.1513 36.1183 80.1642 35.7878 80.1513 35.4789C80.143 35.1826 80.1185 34.8869 80.0778 34.5933C80.0078 34.0062 79.8102 33.4415 79.4989 32.9387C79.4147 32.8104 79.3185 32.6904 79.2117 32.5802C79.2117 32.5694 79.2311 32.5499 79.2419 32.5629Z" fill="#263238"/>
<path d="M69.6898 43.0427C69.7882 42.8305 69.932 42.6425 70.111 42.4919C70.2968 42.3364 70.5063 42.2176 70.705 42.0815C70.903 41.9633 71.0639 41.7919 71.1694 41.5869C71.2546 41.3258 71.2462 41.0432 71.1457 40.7877C71.0543 40.5225 70.9821 40.251 70.9297 39.9755C70.8897 39.7041 70.8897 39.4283 70.9297 39.1569C71.0248 38.5994 71.2887 38.0844 71.6857 37.6816C71.8779 37.4764 72.0874 37.2885 72.2818 37.0854C72.4955 36.8641 72.6792 36.6158 72.8283 36.3467C73.1523 35.7527 73.3337 35.0939 73.6253 34.4848C73.9251 33.8617 74.2869 33.2705 74.7053 32.7201C74.7053 32.7071 74.7356 32.7201 74.7248 32.7395C74.3493 33.2364 74.0271 33.7714 73.7636 34.3357C73.5087 34.8714 73.3316 35.433 73.1156 35.9817C73.0122 36.2525 72.882 36.5123 72.7268 36.7571C72.5748 36.9811 72.4027 37.1908 72.2127 37.3835C71.8304 37.7853 71.4394 38.1805 71.245 38.7141C71.0519 39.238 71.03 39.8098 71.1824 40.347C71.3141 40.8114 71.528 41.3385 71.2299 41.7877C70.9793 42.1679 70.5301 42.3321 70.1953 42.6215C70.0166 42.7813 69.8739 42.977 69.7763 43.1959C69.6788 43.4149 69.6287 43.6519 69.6293 43.8916C69.6056 45.1163 70.6618 45.9522 71.7548 46.2438C71.7608 46.2463 71.7657 46.2508 71.7688 46.2565C71.7718 46.2623 71.7728 46.2689 71.7715 46.2752C71.7702 46.2816 71.7668 46.2873 71.7618 46.2915C71.7568 46.2956 71.7505 46.2978 71.744 46.2978C70.7849 46.0818 69.8281 45.4338 69.5689 44.4424C69.4458 43.9759 69.4886 43.4812 69.6898 43.0427Z" fill="#263238"/>
<path d="M76.2569 41.8591C78.2636 45.6801 80.7929 49.8057 83.0436 50.3932C85.1885 50.9505 90.2969 45.6024 91.1631 43.8268C91.4612 43.2156 87.4176 40.535 86.8431 40.9843C85.7631 41.8332 83.4044 44.5245 83.0674 44.4576C82.7304 44.3906 79.8663 41.8375 77.2808 39.6926C75.7169 38.3923 74.8659 39.2131 76.2569 41.8591Z" fill="#FFC4C0"/>
<path d="M87.5751 34.7767L86.0307 40.1767C85.9659 40.3344 86.0437 40.4683 86.1992 40.4726L89.0072 40.5612C89.0934 40.5575 89.1768 40.5294 89.2476 40.48C89.3184 40.4307 89.3736 40.3622 89.4068 40.2825L90.9512 34.8825C90.9695 34.8527 90.9794 34.8185 90.9798 34.7835C90.9803 34.7486 90.9713 34.7141 90.9539 34.6838C90.9364 34.6535 90.9111 34.6285 90.8806 34.6114C90.8501 34.5943 90.8155 34.5857 90.7806 34.5866L87.9726 34.498C87.8869 34.5026 87.8042 34.5311 87.7339 34.5804C87.6636 34.6296 87.6086 34.6977 87.5751 34.7767Z" fill="#A6A6A6"/>
<path d="M87.9095 34.7757L86.3629 40.1865C86.3454 40.2164 86.3361 40.2504 86.3359 40.2851C86.3358 40.3198 86.3449 40.3539 86.3622 40.384C86.3796 40.4141 86.4045 40.439 86.4346 40.4563C86.4647 40.4736 86.4988 40.4826 86.5335 40.4824L89.3415 40.5688C89.4274 40.5651 89.5105 40.5372 89.5813 40.4882C89.652 40.4393 89.7074 40.3714 89.7411 40.2923L91.2855 34.8923C91.3482 34.7325 91.2726 34.6007 91.1149 34.5964L88.3069 34.5078C88.2223 34.5111 88.1403 34.538 88.0701 34.5853C87.9999 34.6326 87.9443 34.6985 87.9095 34.7757Z" fill="#DBDBDB"/>
<path d="M88.6729 35.0583C88.6696 35.1215 88.6414 35.1809 88.5944 35.2233C88.5475 35.2658 88.4856 35.288 88.4224 35.2851C88.359 35.2812 88.2996 35.2525 88.2572 35.2052C88.2148 35.1579 88.1926 35.0958 88.1956 35.0324C88.2035 34.9725 88.2338 34.9179 88.2802 34.8794C88.3267 34.8409 88.386 34.8213 88.4462 34.8246C88.5065 34.8278 88.5633 34.8537 88.6053 34.897C88.6474 34.9404 88.6715 34.998 88.6729 35.0583Z" fill="#455A64"/>
<path d="M92.4683 40.7664C92.7059 39.1939 92.5266 38.7533 93.4316 37.5264C94.0256 36.725 93.7686 36.0014 92.8333 36.4464C91.3062 37.1829 90.5739 39.1464 90.5156 39.9024L92.4683 40.7664Z" fill="#FFC4C0"/>
<path d="M90.4355 44.8846C90.4355 44.8846 91.9022 43.1717 92.3212 41.5214C92.6107 40.381 92.9692 37.8278 90.4701 35.3525C89.8783 34.765 88.619 34.3481 89.2367 35.657C89.6687 36.588 90.2347 37.0459 90.3923 37.6334C90.3923 37.6334 88.727 37.2922 88.1611 37.9078C87.6686 38.4475 87.2139 39.0205 86.8003 39.6228C86.8937 39.7231 86.9933 39.8176 87.0983 39.9058C87.0983 39.9058 86.6253 40.5322 86.7247 41.7202L90.4355 44.8846Z" fill="#FFC4C0"/>
<path d="M92.4283 40.3924C92.1497 39.8416 91.5384 38.686 90.7003 37.9127C89.7802 37.0487 87.7735 35.6512 87.1493 36.3381C86.6892 36.8414 87.4063 37.444 87.4063 37.444C87.4063 37.444 86.4559 37.0379 86.1406 37.5822C85.8533 38.0812 86.4365 38.5132 86.4365 38.5132C86.4365 38.5132 85.8187 38.3663 85.633 38.8977C85.417 39.5457 86.7454 39.7422 87.0802 40.5846C87.1644 40.7682 92.4283 40.3924 92.4283 40.3924Z" fill="#FFC4C0"/>
<path d="M89.9605 39.0344C89.3022 38.2559 88.422 37.6968 87.4376 37.4316C87.4117 37.4316 87.3944 37.4424 87.416 37.4532C88.3236 37.8779 89.1759 38.4118 89.954 39.043C89.954 39.043 89.9648 39.0387 89.9605 39.0344Z" fill="#263238"/>
<path d="M89.0669 39.9355C88.3418 39.2256 87.4378 38.7255 86.4512 38.4883C86.4274 38.4883 86.4101 38.5012 86.4317 38.5099C87.3594 38.8865 88.2407 39.3685 89.0583 39.9463C89.0583 39.9463 89.0712 39.942 89.0669 39.9355Z" fill="#263238"/>
<path d="M85.457 41.6876L89.6668 46.1545C89.6668 46.1545 85.2194 51.1397 83.1307 50.6192C81.0419 50.0986 77.0935 44.4437 75.8277 40.856C74.9529 38.372 76.3353 38.7716 77.7847 39.992C79.234 41.2124 83.0291 44.2321 83.1955 44.1867C83.3618 44.1413 85.457 41.6876 85.457 41.6876Z" fill="#C53F3F"/>
<g opacity="0.2">
<path d="M85.457 41.6876L89.6668 46.1545C89.6668 46.1545 85.2194 51.1397 83.1307 50.6192C81.0419 50.0986 77.0935 44.4437 75.8277 40.856C74.9529 38.372 76.3353 38.7716 77.7847 39.992C79.234 41.2124 83.0291 44.2321 83.1955 44.1867C83.3618 44.1413 85.457 41.6876 85.457 41.6876Z" fill="black"/>
</g>
<path opacity="0.1" d="M75.8281 40.8489C77.0938 44.4366 81.0423 50.0894 83.131 50.6121C84.0534 50.8432 85.4401 49.9965 86.6972 48.9791C84.5674 46.7846 78.9039 41.4731 76.3292 39.082C75.6294 38.853 75.2708 39.2656 75.8281 40.8489Z" fill="black"/>
<path d="M88.3019 46.8872C87.6906 46.2716 85.2779 43.6623 84.807 43.0618C84.7724 43.0208 84.7919 42.9884 84.8308 43.0272C86.0657 44.2435 87.2324 45.527 88.3256 46.872C88.3429 46.872 88.317 46.9044 88.3019 46.8872Z" fill="#263238"/>
<path d="M69.4766 49.8107L80.5811 49.6336L79.6026 46.3375C79.8803 45.9102 80.0605 45.4272 80.1307 44.9225C80.2009 44.4178 80.1592 43.9039 80.0087 43.4171C79.7128 42.4473 78.4017 41.0217 77.596 40.1167C75.6369 37.9113 74.032 38.9891 73.5287 39.5875C71.6042 41.8879 69.4766 49.8107 69.4766 49.8107Z" fill="#EBEBEB"/>
<path d="M76.632 46.2365C77.1049 46.1779 77.5814 46.1548 78.0576 46.1674C78.2952 46.1674 78.5285 46.1955 78.764 46.2214C78.8828 46.2344 78.9994 46.243 79.1182 46.2495C79.2409 46.2646 79.3649 46.2646 79.4876 46.2495C79.4984 46.2495 79.5005 46.2624 79.4876 46.2668C79.3747 46.2967 79.26 46.3191 79.1441 46.3337C79.0312 46.3402 78.918 46.3402 78.805 46.3337C78.5652 46.3337 78.3255 46.3078 78.0857 46.2992C77.5997 46.2797 77.1159 46.2603 76.632 46.2776C76.6277 46.2761 76.624 46.2734 76.6213 46.2697C76.6186 46.266 76.6172 46.2616 76.6172 46.257C76.6172 46.2525 76.6186 46.2481 76.6213 46.2444C76.624 46.2407 76.6277 46.2379 76.632 46.2365Z" fill="#263238"/>
<path d="M75.5751 46.8951C75.9484 46.7726 76.3285 46.6716 76.7134 46.5927C76.9057 46.5517 77.1001 46.5257 77.2945 46.502L77.5753 46.4739C77.6789 46.4739 77.7913 46.4739 77.8863 46.4609C77.8971 46.4609 77.8993 46.4761 77.8863 46.4761C77.7913 46.489 77.6962 46.5171 77.599 46.5365L77.3117 46.5905L76.7329 46.7007C76.3462 46.7698 75.9617 46.8433 75.5794 46.9167C75.56 46.9318 75.5557 46.9016 75.5751 46.8951Z" fill="#263238"/>
<path d="M73.2225 39.5039C69.6391 41.6639 64.5069 46.8177 64.8611 48.2195C65.2543 49.7791 70.2611 46.7464 70.2957 46.5067C70.3303 46.3252 72.6717 42.9945 74.4105 40.5818C76.1493 38.1691 74.1038 38.9704 73.2225 39.5039Z" fill="#FFC4C0"/>
<path d="M70.3174 46.5185C70.5334 46.1556 73.6784 41.7665 74.6137 40.3798C75.5489 38.9931 75.1688 38.3753 73.2593 39.3883C71.3499 40.4014 66.7534 44.2375 65.3408 46.5379C63.98 48.7519 65.2177 49.0673 67.1357 48.3761C68.7039 47.8102 70.3174 46.5185 70.3174 46.5185Z" fill="#C53F3F"/>
<g opacity="0.2">
<path d="M70.3174 46.5185C70.5334 46.1556 73.6784 41.7665 74.6137 40.3798C75.5489 38.9931 75.1688 38.3753 73.2593 39.3883C71.3499 40.4014 66.7534 44.2375 65.3408 46.5379C63.98 48.7519 65.2177 49.0673 67.1357 48.3761C68.7039 47.8102 70.3174 46.5185 70.3174 46.5185Z" fill="black"/>
</g>
<path d="M70.3203 46.518C70.5601 46.1184 70.8171 45.7275 71.0742 45.3387C71.3312 44.9499 71.599 44.5697 71.8604 44.1852C72.1218 43.8008 72.4004 43.4271 72.679 43.0534C72.9577 42.6797 73.2385 42.3082 73.543 41.9453C73.3033 42.3471 73.0484 42.7359 72.7914 43.1247C72.5343 43.5135 72.2643 43.8936 72.003 44.2781C71.7416 44.6626 71.463 45.0384 71.1843 45.41C70.9057 45.7815 70.6162 46.1573 70.3203 46.518Z" fill="#263238"/>
<path d="M73.5587 42.3086C73.4792 42.449 73.3762 42.5746 73.2541 42.6801C73.1939 42.7336 73.1288 42.7813 73.0597 42.8227C72.9928 42.8654 72.9201 42.8981 72.8438 42.9199C72.9604 42.8054 73.0727 42.7039 73.1893 42.598C73.3051 42.4925 73.4286 42.3958 73.5587 42.3086Z" fill="#263238"/>
<path d="M64.8423 48.0815C65.2419 49.1464 66.9137 49.7555 70.981 51.6887C71.5447 51.9544 74.4996 48.4919 73.9143 48.1744C73.1755 47.777 70.2228 46.3903 69.9939 46.3147C68.065 45.6904 64.5787 47.3623 64.8423 48.0815Z" fill="#FFC4C0"/>
<path d="M73.1139 47.7598C73.1139 47.7598 74.8592 48.4985 75.654 49.1681C76.4647 49.8867 77.0882 50.7919 77.4706 51.8054C77.8896 52.8854 78.1445 55.8252 77.3129 56.0455C76.5612 56.2442 76.4489 53.2375 76.4489 53.2375C76.4489 53.2375 77.0667 56.2831 76.1184 56.3566C75.1702 56.43 75.2393 52.9351 75.2393 52.9351C75.2393 52.9351 75.8031 56.0779 74.8073 56.0002C74.06 55.9397 73.9433 52.7602 73.9433 52.7602C73.9433 52.7602 74.4099 55.4666 73.6366 55.4386C72.7834 55.4083 72.494 52.488 72.494 52.488C70.55 52.0862 69.7767 51.097 69.3144 50.328C69.2129 50.1509 73.1139 47.7598 73.1139 47.7598Z" fill="#FFC4C0"/>
<path d="M76.3042 52.1706C76.3884 52.527 76.4791 52.8856 76.531 53.2506C76.5828 53.6157 76.626 53.9742 76.6455 54.3306C76.6822 54.8072 76.6626 55.2864 76.5871 55.7584C76.6134 54.9202 76.5613 54.0813 76.4316 53.2528C76.3776 52.8921 76.3431 52.527 76.2891 52.1728C76.2891 52.1642 76.302 52.1642 76.3042 52.1706Z" fill="#263238"/>
<path d="M74.9955 52.3406C75.084 52.7985 75.1899 53.2499 75.259 53.7122C75.3281 54.1744 75.354 54.615 75.3907 55.0794C75.3907 55.1162 75.3735 55.1054 75.3691 55.0686C75.313 54.6086 75.2266 54.1852 75.1661 53.723C75.1056 53.2607 75.0603 52.7985 74.9847 52.3427C74.9825 52.3341 74.9933 52.3341 74.9955 52.3406Z" fill="#263238"/>
<path d="M73.8442 52.2844C73.9989 52.984 74.0807 53.6977 74.0883 54.4142C74.0883 54.4487 74.0645 54.4336 74.0624 54.3969C73.9933 53.6884 73.9457 53.1311 73.8205 52.2909C73.8183 52.2715 73.842 52.2715 73.8442 52.2844Z" fill="#263238"/>
<path d="M73.4873 47.8567L68.6705 51.0772C68.6705 51.0772 65.1001 49.2477 64.7977 48.1202C64.5925 47.3858 68.1111 45.5282 70.1977 46.3749L73.4873 47.8567Z" fill="#C53F3F"/>
<path opacity="0.2" d="M73.4873 47.8567L68.6705 51.0772C68.6705 51.0772 65.1001 49.2477 64.7977 48.1202C64.5925 47.3858 68.1111 45.5282 70.1977 46.3749L73.4873 47.8567Z" fill="black"/>
<path d="M67.4347 46.3999C68.3168 46.053 69.2959 46.0437 70.1844 46.3739C70.1952 46.3739 70.1844 46.3955 70.1844 46.3934C69.2513 46.1255 67.8538 46.294 67.4434 46.4171C67.4283 46.4193 67.4261 46.4042 67.4347 46.3999Z" fill="#263238"/>
<path d="M67.8226 50.1117C68.3324 49.7294 68.8637 49.3751 69.3951 49.0317C69.9264 48.6883 70.4578 48.3232 71 47.9819C71.3045 47.7919 71.6091 47.5975 71.9223 47.416C71.9223 47.416 71.9396 47.416 71.9331 47.429C71.4233 47.8113 70.892 48.1677 70.3649 48.5241C69.8379 48.8805 69.3 49.2326 68.7644 49.5803C68.4598 49.7747 68.1531 49.9648 67.842 50.1463C67.8375 50.1488 67.832 50.1495 67.827 50.1481C67.8219 50.1466 67.8176 50.1433 67.815 50.1387C67.8125 50.1341 67.8118 50.1287 67.8132 50.1236C67.8147 50.1186 67.818 50.1143 67.8226 50.1117Z" fill="#263238"/>
<path d="M73.5078 47.8047C73.2949 47.6763 73.0734 47.563 72.8447 47.4655C72.62 47.359 72.3932 47.2575 72.1643 47.161C71.4345 46.8042 70.6767 46.5081 69.8984 46.2754C69.8984 46.2754 69.9265 46.3315 69.9373 46.3337C70.3585 46.4179 73.1773 47.7701 73.4257 47.8457L73.3868 47.8889C73.3868 47.8997 73.3868 47.9192 73.402 47.9127C73.4361 47.899 73.4693 47.8832 73.5013 47.8652C73.5066 47.8623 73.5111 47.8583 73.5145 47.8533C73.5179 47.8483 73.52 47.8426 73.5206 47.8366C73.5212 47.8307 73.5204 47.8246 73.5182 47.8191C73.516 47.8135 73.5124 47.8085 73.5078 47.8047Z" fill="#263238"/>
<path d="M75.3125 39.3835C75.3341 39.5865 76.1203 40.9754 77.0254 41.0402C77.3191 41.0596 77.5049 39.4591 77.5049 39.4591L77.5438 39.3424L78.1119 37.7311L76.3147 36.2515L76.0534 36.0527C76.0534 36.0527 75.9281 36.5042 75.7769 37.0679C75.7769 37.0939 75.7618 37.1198 75.7553 37.1479C75.7447 37.1775 75.736 37.2078 75.7294 37.2386L75.6581 37.4935C75.6408 37.5604 75.6257 37.6231 75.6106 37.6922C75.5955 37.7613 75.5782 37.8283 75.5609 37.8974C75.4439 38.3864 75.3609 38.883 75.3125 39.3835Z" fill="#FFC4C0"/>
<path d="M75.7812 37.0679C75.8929 37.5523 76.1086 38.0067 76.4133 38.3994C76.718 38.7922 77.1045 39.1139 77.546 39.3424L78.1141 37.7311L76.3169 36.2515L76.0556 36.0527C76.0556 36.0527 75.9324 36.5042 75.7812 37.0679Z" fill="#263238"/>
<path d="M80.7646 34.9095C81.4126 37.8385 79.73 38.5578 79.0993 38.696C78.5247 38.8213 76.5569 39.1777 75.6109 36.32C74.6648 33.4623 75.8269 32.2462 77.1229 31.8898C78.4189 31.5334 80.1188 31.9806 80.7646 34.9095Z" fill="#FFC4C0"/>
<path d="M80.2525 34.7574C80.1803 34.7578 80.1081 34.7535 80.0365 34.7445C79.9607 34.7519 79.8846 34.7336 79.8205 34.6926C79.8038 34.6759 79.7931 34.6541 79.79 34.6307C79.7869 34.6073 79.7915 34.5835 79.8032 34.563C79.8323 34.5261 79.8705 34.4975 79.9141 34.4801C79.9577 34.4627 80.0051 34.457 80.0516 34.4637C80.1481 34.463 80.2413 34.4984 80.313 34.563C80.328 34.5778 80.3386 34.5963 80.3437 34.6168C80.3489 34.6372 80.3483 34.6586 80.342 34.6787C80.3358 34.6987 80.3241 34.7167 80.3083 34.7306C80.2925 34.7445 80.2732 34.7538 80.2525 34.7574Z" fill="#263238"/>
<path d="M78.2628 34.9787C78.3298 34.9593 78.3903 34.9312 78.4551 34.9053C78.5274 34.8901 78.5928 34.8514 78.6408 34.7951C78.6522 34.7744 78.6565 34.7505 78.653 34.7271C78.6495 34.7036 78.6384 34.682 78.6214 34.6655C78.5828 34.6382 78.5375 34.6218 78.4904 34.618C78.4433 34.6142 78.396 34.6232 78.3535 34.6439C78.2623 34.6711 78.185 34.7321 78.1375 34.8146C78.1277 34.8338 78.1235 34.8554 78.1255 34.8769C78.1274 34.8984 78.1354 34.919 78.1485 34.9361C78.1616 34.9533 78.1793 34.9664 78.1995 34.9739C78.2197 34.9815 78.2417 34.9831 78.2628 34.9787Z" fill="#263238"/>
<path d="M78.7837 35.4844C78.7837 35.4844 78.7707 35.4973 78.7707 35.5038C78.8139 35.7047 78.8269 35.9358 78.6562 36.0395C78.6562 36.0395 78.6562 36.0525 78.6562 36.0503C78.8766 35.9812 78.855 35.668 78.7837 35.4844Z" fill="#263238"/>
<path d="M78.5679 35.3055C78.2396 35.3357 78.3282 35.9902 78.6306 35.9535C78.933 35.9167 78.8401 35.2795 78.5679 35.3055Z" fill="#263238"/>
<path d="M78.4422 35.3576C78.3903 35.4008 78.3428 35.4742 78.2737 35.4894C78.2046 35.5045 78.1268 35.4483 78.0577 35.39H78.0469C78.062 35.5153 78.1268 35.6384 78.2629 35.6384C78.399 35.6384 78.4616 35.5174 78.4789 35.3857C78.4875 35.3706 78.4638 35.3382 78.4422 35.3576Z" fill="#263238"/>
<path d="M79.8926 35.2383C79.8926 35.2383 79.9098 35.2383 79.9098 35.2556C79.9293 35.4586 79.9854 35.6876 80.1777 35.7329C79.9487 35.7416 79.8774 35.4348 79.8926 35.2383Z" fill="#263238"/>
<path d="M80.0497 35.0045C80.3715 34.9397 80.4817 35.5899 80.1793 35.6525C79.8769 35.7152 79.7775 35.0585 80.0497 35.0045Z" fill="#263238"/>
<path d="M80.193 35.0239C80.2491 35.0498 80.3118 35.1038 80.3723 35.0995C80.4327 35.0952 80.4867 35.0131 80.5213 34.9375C80.5451 35.0606 80.5213 35.1967 80.409 35.2399C80.2966 35.2831 80.2059 35.1859 80.1562 35.0671C80.1584 35.052 80.1692 35.0131 80.193 35.0239Z" fill="#263238"/>
<path d="M79.0017 37.1947C79.0557 37.2379 79.1097 37.3005 79.1831 37.3005C79.2593 37.2923 79.3329 37.268 79.3991 37.2293C79.3991 37.2293 79.4142 37.2293 79.4099 37.2293C79.3842 37.2716 79.3476 37.3062 79.3039 37.3294C79.2601 37.3526 79.2109 37.3635 79.1615 37.361C79.1187 37.3543 79.0789 37.3348 79.0473 37.3051C79.0157 37.2755 78.9938 37.237 78.9844 37.1947C78.9868 37.1926 78.9898 37.1914 78.993 37.1914C78.9962 37.1914 78.9993 37.1926 79.0017 37.1947Z" fill="#263238"/>
<path d="M79.743 36.3429C79.743 36.3429 79.8273 36.6388 79.8489 36.7749C79.8489 36.7879 79.8165 36.8008 79.7689 36.8095C79.65 36.8492 79.5225 36.8555 79.4002 36.8277C79.2779 36.7999 79.1656 36.739 79.0756 36.6518C79.0626 36.6388 79.0756 36.6215 79.0929 36.628C79.2937 36.7265 79.521 36.7576 79.7409 36.7166C79.7409 36.6755 79.5789 36.2133 79.6005 36.209C79.7127 36.2033 79.8252 36.212 79.9353 36.2349C79.7754 35.615 79.5162 35.0231 79.3672 34.4011C79.367 34.397 79.3681 34.3929 79.3704 34.3895C79.3727 34.3861 79.3759 34.3835 79.3798 34.3821C79.3836 34.3807 79.3878 34.3805 79.3917 34.3815C79.3957 34.3826 79.3992 34.3849 79.4017 34.3881C79.699 35.011 79.9327 35.6623 80.0994 36.3321C80.1102 36.425 79.8035 36.3602 79.743 36.3429Z" fill="#263238"/>
<path d="M79.746 36.7659C79.6832 36.8935 79.5887 37.0028 79.4717 37.0834C79.4076 37.1252 79.3322 37.1463 79.2557 37.1439C79.0872 37.1439 79.0526 36.9884 79.0548 36.8566C79.0578 36.7837 79.0686 36.7112 79.0872 36.6406C79.2879 36.7512 79.5186 36.7951 79.746 36.7659Z" fill="#263238"/>
<path d="M79.4717 37.084C79.4076 37.1258 79.3322 37.1469 79.2557 37.1444C79.0872 37.1444 79.0526 36.9889 79.0548 36.8572C79.1397 36.8425 79.227 36.8569 79.3027 36.898C79.3783 36.9392 79.4379 37.0047 79.4717 37.084Z" fill="#FF9ABB"/>
<path d="M75.6315 36.5042C75.8177 36.3975 75.9729 36.2442 76.0819 36.0594C76.191 35.8746 76.2501 35.6647 76.2536 35.4501C76.7623 35.1832 77.191 34.7859 77.4956 34.2988C77.4804 34.3636 77.366 34.8194 77.3012 35.0505C79.1804 34.5623 79.6772 33.0655 79.6772 33.0655C80.0648 33.3744 80.3772 33.7673 80.5908 34.2146C80.5908 34.2146 80.5239 33.046 79.8694 32.3051C79.6548 32.048 79.3757 31.8524 79.0607 31.7386C78.7457 31.6247 78.4061 31.5966 78.0766 31.6571C77.5983 31.576 77.1069 31.6253 76.6542 31.7998C76.2015 31.9742 75.8042 32.2674 75.504 32.6486C74.3528 34.0612 75.6315 36.5042 75.6315 36.5042Z" fill="#263238"/>
<path d="M78.726 34.6255C78.4315 34.8157 78.1105 34.9613 77.7734 35.0575C78.2987 34.8742 78.7625 34.5481 79.1126 34.1157C79.2616 33.9276 79.3864 33.7215 79.4842 33.5023C79.6014 33.2709 79.6705 33.0181 79.6872 32.7593C79.6872 32.7553 79.6888 32.7514 79.6916 32.7486C79.6945 32.7457 79.6983 32.7441 79.7023 32.7441C79.7063 32.7441 79.7102 32.7457 79.713 32.7486C79.7158 32.7514 79.7174 32.7553 79.7174 32.7593C79.7266 33.0165 79.6931 33.2734 79.6181 33.5196C79.5331 33.7614 79.4042 33.9855 79.2379 34.1805C79.09 34.3523 78.9183 34.5021 78.7282 34.6255" fill="#263238"/>
<path d="M76.1539 36.1864C76.1539 36.1864 75.3807 35.3418 74.9919 35.6399C74.6031 35.938 75.2662 37.208 75.7846 37.329C75.8501 37.3486 75.9189 37.3547 75.9869 37.3471C76.0548 37.3394 76.1205 37.3181 76.18 37.2844C76.2395 37.2507 76.2916 37.2053 76.3332 37.151C76.3747 37.0967 76.4049 37.0345 76.4218 36.9683L76.1539 36.1864Z" fill="#FFC4C0"/>
</svg>
